# vtk DataFile Version 5.1
vtk output
ASCII
DATASET POLYDATA
POINTS 1002 float
-0.507435 -0.0179865 -0.166594 0.487338 0.0270719 -0.095843 -0.375214 0.0933267 0.129245 
0.433965 -0.0490997 0.0331411 -0.0333623 0.163762 -0.1353 -0.119396 0.133484 0.0214345 
-0.0212336 -0.361546 -0.0585146 -0.0658337 -0.408733 0.0778422 0.805473 0.443461 0.0762192 
-0.694107 0.401954 0.0411591 0.733397 -0.176311 -0.00860647 -0.70414 -0.217541 0.00865409 
-0.433952 -0.0292027 -0.165649 -0.347305 -0.0414417 -0.160403 -0.247866 -0.0530833 -0.151554 
-0.136603 -0.0614484 -0.141663 -0.0167127 -0.0631516 -0.13359 0.104327 -0.0558035 -0.128209 
0.218326 -0.0398826 -0.123404 0.320991 -0.0185277 -0.116351 0.410894 0.00459828 -0.106584 
-0.48703 0.0112809 -0.164904 -0.459749 0.0401766 -0.160502 -0.42372 0.0680774 -0.155356 
-0.378808 0.0945054 -0.151262 -0.32771 0.117298 -0.149033 -0.272974 0.134127 -0.148553 
-0.214707 0.145361 -0.14865 -0.153315 0.153016 -0.147286 -0.0916806 0.158704 -0.142879 
-0.479736 -0.0549636 -0.164724 -0.444056 -0.0941152 -0.157077 -0.399975 -0.133731 -0.143586 
-0.34833 -0.172738 -0.126914 -0.292095 -0.211355 -0.110591 -0.234869 -0.249574 -0.0960727 
-0.178612 -0.28507 -0.0831179 -0.12378 -0.31506 -0.0720281 -0.0708993 -0.339737 -0.0637108 
-0.563495 0.0121263 -0.163744 -0.617234 0.044573 -0.156744 -0.664925 0.0777575 -0.144202 
-0.701012 0.112496 -0.123352 -0.719939 0.151351 -0.0943695 -0.722103 0.196115 -0.0629468 
-0.715614 0.247521 -0.034426 -0.708668 0.303795 -0.00880876 -0.70267 0.358148 0.0161441 
-0.560661 -0.0312607 -0.163978 -0.614286 -0.0473016 -0.156173 -0.665106 -0.0653281 -0.142411 
-0.709253 -0.087701 -0.123824 -0.743376 -0.11824 -0.101982 -0.764501 -0.154512 -0.0775186 
-0.769715 -0.186669 -0.0517054 -0.758473 -0.207051 -0.0273721 -0.734595 -0.215897 -0.00698461 
0.467988 0.0528831 -0.0950603 0.442 0.0766132 -0.0931167 0.408157 0.0965074 -0.0901859 
0.365035 0.111692 -0.087955 0.311487 0.121182 -0.0894372 0.248016 0.125161 -0.0973913 
0.17775 0.127994 -0.111558 0.105168 0.135389 -0.126774 0.0339486 0.148411 -0.135912 
0.457783 -0.0142772 -0.102046 0.421771 -0.0588852 -0.105452 0.378039 -0.105437 -0.104328 
0.326307 -0.151511 -0.0990113 0.268228 -0.195122 -0.0915707 0.20632 -0.236204 -0.0834982 
0.143315 -0.274763 -0.0754306 0.0826818 -0.309104 -0.0683104 0.0274838 -0.337789 -0.0627929 
0.548012 0.0684505 -0.0841567 0.60925 0.11713 -0.0717248 0.668708 0.172176 -0.0595257 
0.724871 0.230617 -0.047554 0.775433 0.289549 -0.0357526 0.814451 0.347396 -0.0225867 
0.834968 0.399567 -0.00345028 0.836061 0.436519 0.0238664 0.823846 0.450861 0.0535673 
0.540336 0.0229089 -0.0892914 0.591683 0.0156098 -0.0823254 0.640999 0.00363951 -0.0746297 
0.689248 -0.0160002 -0.0671705 0.733767 -0.0438068 -0.0628273 0.764912 -0.0752494 -0.0613216 
0.774433 -0.105459 -0.056527 0.76579 -0.132923 -0.0438865 0.749767 -0.156977 -0.0260653 
-0.333714 0.0698206 0.138809 -0.284143 0.0394583 0.147299 -0.222679 0.00320246 0.15083 
-0.147362 -0.0343146 0.143034 -0.0580118 -0.0647416 0.1207 0.0437221 -0.0811658 0.0902973 
0.151836 -0.08372 0.0631416 0.256981 -0.0772772 0.04497 0.351949 -0.0653603 0.0353435 
-0.362716 0.126324 0.156733 -0.346262 0.15434 0.192022 -0.324965 0.179153 0.225377 
-0.297897 0.203233 0.242696 -0.26539 0.222919 0.234565 -0.23174 0.229063 0.20315 
-0.202559 0.217013 0.158086 -0.177873 0.19137 0.108563 -0.151898 0.16098 0.0613212 
-0.359772 0.0401795 0.117692 -0.341994 -0.0230445 0.121358 -0.326504 -0.0907317 0.140165 
-0.312888 -0.155136 0.158715 -0.292125 -0.213611 0.160211 -0.256436 -0.268752 0.145776 
-0.209196 -0.320037 0.128057 -0.159209 -0.361983 0.112413 -0.111235 -0.391034 0.096164 
-0.407665 0.135821 0.133822 -0.441974 0.179384 0.135307 -0.481692 0.222879 0.132435 
-0.529157 0.263416 0.131455 -0.579991 0.300592 0.135947 -0.625734 0.337983 0.137317 
-0.661313 0.374418 0.124965 -0.685081 0.4005 0.0995481 -0.695798 0.409 0.0693896 
-0.408266 0.0803679 0.110773 -0.446688 0.0597142 0.0956587 -0.490105 0.0322761 0.0842145 
-0.535912 -0.00132079 0.0754878 -0.579868 -0.0405873 0.0679032 -0.618145 -0.0824112 0.0593451 
-0.649599 -0.122545 0.0484347 -0.674946 -0.159261 0.0356241 -0.693743 -0.191704 0.0221142 
0.409609 -0.0297261 0.0269911 0.375331 -0.01126 0.0220099 0.32838 0.00392277 0.0175422 
0.265962 0.0135255 0.0114387 0.189542 0.0185362 0.00236722 0.108338 0.0246097 -0.00657203 
0.033951 0.0386002 -0.00930415 -0.0280521 0.063425 -0.00311524 -0.0783918 0.0967074 0.00887897 
0.403662 -0.0813795 0.0401309 0.36565 -0.116853 0.049248 0.320565 -0.155462 0.0589229 
0.269278 -0.197829 0.067366 0.213091 -0.243393 0.0745697 0.154564 -0.28804 0.0815176 
0.0960176 -0.327099 0.0871445 0.0383537 -0.359743 0.0887034 -0.0167346 -0.387077 0.0851211 
0.497919 -0.0149819 0.0335512 0.561651 0.0275385 0.0417499 0.621022 0.0784606 0.0572661 
0.672446 0.137446 0.0756047 0.715018 0.203338 0.0929093 0.749868 0.272045 0.108534 
0.777314 0.335959 0.119451 0.796193 0.387518 0.11861 0.805497 0.423147 0.102716 
0.492795 -0.0492473 0.041174 0.548716 -0.0496686 0.0558545 0.598535 -0.054884 0.0754696 
0.642813 -0.0681891 0.0936703 0.683655 -0.0867525 0.100643 0.717315 -0.105201 0.0903621 
0.736511 -0.122353 0.0670696 0.741085 -0.140082 0.0400668 0.73817 -0.158685 0.014583 
-0.040602 0.173596 -0.122969 -0.0514351 0.176206 -0.105102 -0.0647748 0.17179 -0.0864236 
-0.0784049 0.164115 -0.0710978 -0.0905342 0.157631 -0.0581242 -0.10081 0.153866 -0.0437311 
-0.109311 0.151109 -0.0271004 -0.115474 0.147059 -0.0100573 -0.118735 0.140959 0.00621809 
0.0687886 0.166928 -0.127215 0.178432 0.189865 -0.11472 0.286104 0.233592 -0.0994818 
0.385335 0.287805 -0.0823712 0.476323 0.338065 -0.0629896 0.562755 0.377861 -0.0413171 
0.644662 0.408618 -0.0170747 0.716023 0.431106 0.0113689 0.77016 0.44323 0.0438554 
-0.134914 0.182316 -0.130659 -0.234698 0.211739 -0.115192 -0.323824 0.247559 -0.0916465 
-0.399711 0.287275 -0.0681531 -0.465288 0.329929 -0.0506998 -0.523444 0.370259 -0.0368453 
-0.576175 0.399634 -0.0204779 -0.624389 0.413632 8.42063e-05 -0.665211 0.413457 0.0217927 
-0.0451726 0.0937629 -0.0163776 0.0624261 0.0820609 -0.035953 0.194728 0.11022 -0.0301621 
0.327767 0.16751 -0.0100141 0.44369 0.228252 0.00575732 0.54368 0.279456 0.0147204 
0.632538 0.327692 0.0286114 0.70682 0.377404 0.0499023 0.763445 0.419718 0.0684507 
-0.175168 0.192641 0.0563411 -0.226384 0.258377 0.087472 -0.279317 0.319014 0.106381 
-0.33784 0.369716 0.112232 -0.402349 0.412018 0.108777 -0.473243 0.445825 0.0988119 
-0.547359 0.465919 0.0847896 -0.61389 0.465656 0.069749 -0.662811 0.442698 0.0552564 
-0.0196281 -0.390876 -0.0543768 -0.0177914 -0.425246 -0.0516012 -0.0174144 -0.458814 -0.0494041 
-0.0205554 -0.479735 -0.0445421 -0.0281541 -0.480383 -0.0326827 -0.0391262 -0.466955 -0.0128934 
-0.0507502 -0.451812 0.0112952 -0.0599359 -0.43941 0.0359251 -0.0648697 -0.426144 0.0586826 
0.0584958 -0.368342 -0.0578758 0.144818 -0.37264 -0.0588298 0.236257 -0.37222 -0.0607413 
0.3323 -0.365679 -0.0626063 0.430333 -0.353527 -0.0640193 0.523083 -0.335014 -0.0633234 
0.601858 -0.30654 -0.0572048 0.661933 -0.26704 -0.0445696 0.704243 -0.221402 -0.0275962 
-0.0999114 -0.369466 -0.0564871 -0.184566 -0.375922 -0.0524761 -0.270668 -0.380012 -0.045674 
-0.351369 -0.376007 -0.0378327 -0.422904 -0.357429 -0.0313929 -0.489555 -0.327745 -0.0258262 
-0.557074 -0.298483 -0.0187988 -0.62156 -0.274117 -0.00981039 -0.672413 -0.24889 -0.000204302 
0.0121874 -0.40855 0.063165 0.102616 -0.404901 0.0481715 0.203555 -0.397672 0.0349707 
0.307885 -0.384305 0.0239605 0.40733 -0.362393 0.0144782 0.498721 -0.333172 0.00684453 
0.580359 -0.299371 0.00181457 0.647442 -0.261578 -0.001471 0.697333 -0.219862 -0.00476595 
-0.138894 -0.416684 0.0803294 -0.2094 -0.416098 0.0791075 -0.271557 -0.401318 0.069789 
-0.325213 -0.372346 0.0506902 -0.378788 -0.337061 0.0288439 -0.441568 -0.304628 0.0157201 
-0.51363 -0.278503 0.0141854 -0.586626 -0.257102 0.0164985 -0.651646 -0.237555 0.015087 
0.841143 0.437569 0.0938793 0.869875 0.406188 0.103337 0.89003 0.347622 0.102542 
0.896248 0.268918 0.094335 0.884113 0.181633 0.0819406 0.857685 0.0955865 0.0649771 
0.826577 0.016122 0.0433512 0.796302 -0.0553153 0.0212305 0.766051 -0.119281 0.00348414 
-0.719971 0.354838 0.0408324 -0.742476 0.292963 0.0349217 -0.768688 0.221086 0.0246752 
-0.79908 0.146161 0.0137715 -0.81973 0.0746272 0.00569175 -0.817483 0.0073359 0.00189946 
-0.797452 -0.0589487 0.00208737 -0.771689 -0.122712 0.00470761 -0.741992 -0.176948 0.00750097 
-0.407412 -0.0019303 -0.1632 -0.373325 0.0246995 -0.158009 -0.312648 -0.0162689 -0.156798 
-0.330278 0.0507869 -0.151798 -0.269693 0.00872921 -0.149918 -0.202897 -0.0285216 -0.146365 
-0.279161 0.0749047 -0.146561 -0.218167 0.0335888 -0.141626 -0.149327 -0.00335506 -0.137506 
-0.0805741 -0.0352101 -0.135134 -0.222204 0.0939552 -0.143778 -0.159587 0.0558962 -0.134839 
-0.0885844 0.0219903 -0.127692 -0.0175006 -0.00755302 -0.125355 0.0472861 -0.0331522 -0.126856 
-0.160179 0.10783 -0.143275 -0.0952767 0.0740746 -0.131231 -0.0227567 0.0461059 -0.120161 
0.0497803 0.0217852 -0.115362 0.115047 -0.000327444 -0.117193 0.170873 -0.0204458 -0.121589 
-0.0939932 0.120102 -0.143072 -0.0265844 0.0913081 -0.129822 0.0463652 0.0701716 -0.115499 
0.118758 0.0534253 -0.107236 0.183789 0.036686 -0.106801 0.238427 0.0193544 -0.111252 
0.283604 0.0013148 -0.115539 -0.0275928 0.133503 -0.140967 0.0422345 0.111577 -0.128758 
0.115139 0.0972295 -0.112731 0.186417 0.0881434 -0.101013 0.250597 0.0780396 -0.0970969 
0.304427 0.0642046 -0.099241 0.348006 0.047248 -0.103445 0.383034 0.0272801 -0.106253 
-0.541838 0.045207 -0.159871 -0.591503 0.0806576 -0.149091 -0.511453 0.0775255 -0.153886 
-0.631859 0.116202 -0.130419 -0.556116 0.115846 -0.140192 -0.470931 0.108361 -0.14866 
-0.658822 0.154529 -0.103505 -0.591015 0.155207 -0.117644 -0.511315 0.149917 -0.133823 
-0.421745 0.136902 -0.145651 -0.670761 0.199997 -0.0736747 -0.613846 0.200469 -0.0896771 
-0.543915 0.194564 -0.110399 -0.459469 0.181294 -0.130637 -0.368024 0.160514 -0.1444 
-0.672145 0.253622 -0.047397 -0.624241 0.254688 -0.0640393 -0.566001 0.246356 -0.0846043 
-0.490998 0.228954 -0.107258 -0.404237 0.205467 -0.128597 -0.312243 0.17658 -0.143693 
-0.670691 0.311919 -0.0248149 -0.626686 0.313575 -0.0432047 -0.576056 0.303233 -0.062623 
-0.512241 0.28 -0.0823765 -0.434436 0.250338 -0.1038 -0.347977 0.218473 -0.125731 
-0.254211 0.184589 -0.141975 -0.669426 0.367872 -0.00226941 -0.626645 0.36889 -0.0228558 
-0.577962 0.356708 -0.042681 -0.521756 0.329254 -0.0597011 -0.454918 0.292768 -0.0767567 
-0.378063 0.255627 -0.0981326 -0.29139 0.219734 -0.121218 -0.194391 0.18568 -0.137754 
-0.625869 0.447517 0.0323387 -0.569575 0.458433 0.0449672 -0.577919 0.435128 0.00942501 
-0.500439 0.445366 0.0598405 -0.518242 0.431405 0.0238182 -0.524521 0.405364 -0.0089827 
-0.42787 0.416395 0.0738164 -0.450574 0.408521 0.0408279 -0.464297 0.389464 0.00836959 
-0.468377 0.36221 -0.0229601 -0.358411 0.378563 0.0818665 -0.380543 0.375778 0.0530523 
-0.398989 0.361113 0.0236509 -0.408496 0.338568 -0.00770872 -0.408108 0.313198 -0.038968 
-0.294785 0.330778 0.0796898 -0.312276 0.332864 0.0534785 -0.330385 0.322976 0.026811 
-0.343496 0.304282 -0.00179908 -0.346204 0.283799 -0.0319747 -0.338342 0.265497 -0.0625453 
-0.237264 0.270028 0.0643739 -0.248269 0.274942 0.0400484 -0.260246 0.270344 0.0149897 
-0.270841 0.257738 -0.0104033 -0.274186 0.2434 -0.0358523 -0.266939 0.232497 -0.0623907 
-0.251975 0.2236 -0.0900048 -0.180992 0.202048 0.0372092 -0.18509 0.207597 0.016175 
-0.187956 0.207496 -0.00603255 -0.189738 0.202567 -0.0277875 -0.188018 0.196929 -0.0475876 
-0.179684 0.194539 -0.0671003 -0.165333 0.194471 -0.0890939 -0.149144 0.191628 -0.111961 
0.0670054 0.176482 -0.114631 0.0612327 0.177176 -0.0971293 0.182163 0.202109 -0.100427 
0.0512151 0.168215 -0.0807408 0.181932 0.202886 -0.0818011 0.29299 0.248693 -0.0817195 
0.0368782 0.153033 -0.0693633 0.17581 0.190113 -0.0660836 0.296324 0.247958 -0.0605255 
0.392363 0.30082 -0.0603939 0.0189163 0.13703 -0.0605953 0.161534 0.167762 -0.0567428 
0.293309 0.230363 -0.0441328 0.396633 0.293886 -0.037352 0.482596 0.343097 -0.0384189 
-0.000526896 0.123517 -0.0507377 0.139451 0.142752 -0.051015 0.28035 0.20234 -0.0352544 
0.395055 0.270722 -0.0212596 0.486337 0.32746 -0.0165135 0.568894 0.373264 -0.0165602 
-0.0186655 0.112468 -0.0396284 0.11318 0.119494 -0.0460955 0.257111 0.170888 -0.0312435 
0.38294 0.239527 -0.0129694 0.483512 0.299447 -0.00306606 0.570619 0.349888 0.00227108 
0.64946 0.39601 0.00761979 -0.0336736 0.102705 -0.0281994 0.0867258 0.0991731 -0.0413946 
0.227141 0.139441 -0.0300255 0.359304 0.204468 -0.00972242 0.469208 0.26589 0.00338511 
0.563203 0.316978 0.0117675 0.646586 0.366311 0.023697 0.716209 0.412329 0.036704 
0.144709 0.163449 -0.12441 0.258183 0.200335 -0.110916 0.221837 0.163072 -0.113316 
0.366285 0.253878 -0.0972119 0.337581 0.209952 -0.100834 0.297241 0.165467 -0.098351 
0.466091 0.310804 -0.0819841 0.446408 0.265923 -0.0894252 0.412913 0.215105 -0.0875088 
0.366198 0.16623 -0.0858332 0.559063 0.360975 -0.0629857 0.546418 0.320216 -0.0756898 
0.519497 0.26659 -0.0771939 0.47754 0.212128 -0.0757242 0.424226 0.160334 -0.0792872 
0.64605 0.401941 -0.0399938 0.638038 0.368205 -0.0575742 0.615429 0.314656 -0.0644252 
0.577631 0.256123 -0.0653613 0.528015 0.200067 -0.0690196 0.470165 0.146447 -0.0781677 
0.723107 0.432361 -0.0127149 0.720326 0.406641 -0.0352332 0.701958 0.356672 -0.0484978 
0.6671 0.296223 -0.0538151 0.620393 0.236527 -0.0587281 0.56579 0.179579 -0.0676433 
0.505211 0.125456 -0.0799072 0.783463 0.449124 0.0194149 0.788108 0.430292 -0.0078968 
0.777263 0.386704 -0.0286427 0.747533 0.328697 -0.0402996 0.703104 0.267778 -0.0483193 
0.650486 0.20833 -0.0577089 0.592549 0.151214 -0.069287 0.5307 0.0986343 -0.082219 
0.862234 0.431016 0.065553 0.890578 0.383802 0.071451 0.873556 0.401369 0.0324011 
0.903241 0.31278 0.0704563 0.895318 0.341959 0.0379007 0.865946 0.353825 0.00394229 
0.896077 0.227636 0.0629378 0.895952 0.264825 0.038103 0.877307 0.289592 0.0089838 
0.835516 0.297993 -0.0172983 0.873401 0.138574 0.048302 0.879632 0.178232 0.0297723 
0.869489 0.211622 0.00770268 0.838243 0.233393 -0.0156132 0.787233 0.239062 -0.0347465 
0.844843 0.0532025 0.0270865 0.857202 0.0901391 0.0117629 0.853269 0.125763 -0.00338481 
0.828109 0.156042 -0.0202974 0.784621 0.174271 -0.0371779 0.729364 0.17829 -0.050367 
0.815406 -0.0245868 0.00415341 0.832661 0.00744476 -0.0112657 0.835158 0.0404381 -0.0226186 
0.813962 0.0731372 -0.0323624 0.773284 0.0998004 -0.0436008 0.722641 0.114961 -0.0549993 
0.66735 0.119409 -0.0642384 0.784236 -0.0944173 -0.014336 0.802627 -0.066767 -0.0313652 
0.810201 -0.0371921 -0.0426626 0.794843 -0.00565071 -0.0481829 0.757222 0.024819 -0.0533276 
0.708708 0.0479802 -0.0611115 0.657235 0.061224 -0.0695993 0.603731 0.0671102 -0.0771614 
0.835151 0.412443 0.122629 0.818881 0.368548 0.138422 0.858358 0.372612 0.129635 
0.793645 0.306664 0.139115 0.836084 0.318422 0.143639 0.874912 0.303846 0.124042 
0.761958 0.234361 0.130026 0.805262 0.248124 0.14711 0.848498 0.24145 0.138143 
0.878273 0.217282 0.112739 0.724995 0.162488 0.114929 0.769397 0.174085 0.143098 
0.813129 0.169612 0.147062 0.849216 0.152945 0.129001 0.863079 0.12723 0.0989926 
0.680182 0.0976403 0.0930556 0.728678 0.106991 0.128101 0.772116 0.101825 0.146309 
0.811275 0.0867692 0.140282 0.833756 0.0667643 0.114805 0.834703 0.0428206 0.0798106 
0.624665 0.0406722 0.0682102 0.678525 0.0483277 0.101354 0.724085 0.0435446 0.128732 
0.765276 0.0280881 0.137222 0.796219 0.00884503 0.122481 0.807275 -0.0113188 0.0915825 
0.803028 -0.032825 0.0555156 0.560384 -0.00858966 0.0493634 0.617022 -0.00412042 0.0735428 
0.665534 -0.00820986 0.100128 0.70878 -0.0227134 0.117802 0.746575 -0.0420808 0.116212 
0.770374 -0.0612531 0.0950377 0.776022 -0.0801219 0.0639444 0.771527 -0.0996837 0.0322336 
0.0135298 0.0688098 -0.0238558 0.0834942 0.0539523 -0.0241922 0.13924 0.0783231 -0.0306973 
0.163514 0.0500872 -0.0154255 0.222951 0.0842578 -0.0174135 0.279347 0.124891 -0.0141642 
0.248372 0.0519586 -0.00211139 0.308634 0.092942 -0.00160615 0.363219 0.138532 0.00181763 
0.408551 0.18539 0.0050618 0.327645 0.0509757 0.0084319 0.388775 0.0953906 0.009132 
0.442586 0.143229 0.0114581 0.486217 0.192432 0.0138687 0.520143 0.239439 0.0152515 
0.391957 0.0418793 0.0142189 0.454888 0.0872782 0.0143539 0.511326 0.137093 0.0163159 
0.557579 0.189354 0.0197721 0.593562 0.241699 0.0247114 0.619023 0.289167 0.0288218 
0.439714 0.025573 0.0189145 0.503844 0.0706985 0.0202615 0.563357 0.122741 0.0246849 
0.614228 0.179729 0.0315732 0.654719 0.238842 0.041504 0.684222 0.294885 0.0517611 
0.701608 0.342025 0.0558715 0.474164 0.00577319 0.0254429 0.53844 0.0499386 0.0301506 
0.598648 0.102688 0.0399587 0.651277 0.162966 0.0522961 0.694566 0.227999 0.0665147 
0.728039 0.292177 0.0812592 0.750921 0.348283 0.089893 0.762476 0.391194 0.0855467 
-0.116525 0.117566 0.0472406 -0.146409 0.144357 0.0948204 -0.0733523 0.0739014 0.0295925 
-0.173307 0.168027 0.145917 -0.10955 0.0928187 0.0726527 -0.0176736 0.0359832 0.0150024 
-0.203993 0.177524 0.192183 -0.140858 0.111249 0.120899 -0.060686 0.0430329 0.0498956 
0.0535132 0.00915406 0.00977975 -0.239032 0.168812 0.221466 -0.173803 0.117772 0.164406 
-0.0976092 0.0526515 0.0914108 0.00493238 0.00322465 0.0362499 0.134035 -0.0064363 0.0137565 
-0.272619 0.148896 0.223211 -0.208941 0.108822 0.188953 -0.13334 0.0546101 0.129263 
-0.0382867 0.00196154 0.0702076 0.0809418 -0.0231887 0.0343324 0.210202 -0.016935 0.0209867 
-0.299659 0.125878 0.199879 -0.240846 0.0903178 0.187216 -0.167947 0.0450341 0.151285 
-0.0784641 -0.00295522 0.103413 0.0308541 -0.0350845 0.0625991 0.15324 -0.041181 0.0384356 
0.272045 -0.0293712 0.0268339 -0.319355 0.100319 0.166744 -0.265592 0.0671874 0.168015 
-0.197992 0.0269585 0.155403 -0.115113 -0.0153891 0.127986 -0.0158256 -0.047984 0.093202 
0.0969294 -0.0614725 0.0627582 0.212258 -0.0581839 0.0424794 0.318271 -0.0460943 0.0310985 
-0.312911 0.0121512 0.130557 -0.290926 -0.0545544 0.141133 -0.256049 -0.0216723 0.144855 
-0.271243 -0.121516 0.161092 -0.226598 -0.0874596 0.158534 -0.185126 -0.0571644 0.152819 
-0.248787 -0.181337 0.168286 -0.196491 -0.14856 0.168656 -0.144961 -0.115828 0.160384 
-0.0992343 -0.0869559 0.143582 -0.213472 -0.235121 0.154375 -0.159179 -0.202194 0.157292 
-0.101848 -0.168084 0.152797 -0.0485392 -0.134218 0.138494 -0.000571199 -0.104715 0.115888 
-0.164595 -0.285992 0.133083 -0.110712 -0.251895 0.132849 -0.0529735 -0.216174 0.128398 
0.00358998 -0.177878 0.118804 0.0567634 -0.141208 0.102975 0.106361 -0.109874 0.0830624 
-0.111771 -0.330754 0.116193 -0.0574722 -0.297151 0.113494 -0.0005158 -0.260957 0.106039 
0.0564826 -0.22008 0.0965782 0.112195 -0.177642 0.0857673 0.165338 -0.139173 0.0728789 
0.214222 -0.10617 0.0585796 -0.0622569 -0.36453 0.101663 -0.00728154 -0.333472 0.101255 
0.049887 -0.298476 0.094764 0.107524 -0.257699 0.0851984 0.164808 -0.212727 0.0757465 
0.219884 -0.169289 0.0664756 0.270563 -0.130713 0.0561026 0.315015 -0.0964172 0.0451197 
0.070024 -0.385689 0.0706379 0.169232 -0.380357 0.0561433 0.132205 -0.355846 0.0751081 
0.276198 -0.369515 0.0441164 0.237398 -0.346146 0.0627819 0.19569 -0.317781 0.0760357 
0.380832 -0.349281 0.0352676 0.345911 -0.328892 0.0542772 0.304281 -0.301333 0.0684238 
0.259069 -0.271906 0.0745851 0.477232 -0.318408 0.0283341 0.447752 -0.301307 0.0491302 
0.411046 -0.277898 0.0649922 0.367912 -0.249864 0.0722162 0.319731 -0.222608 0.0712173 
0.565552 -0.281123 0.0227077 0.541526 -0.264358 0.0448389 0.509217 -0.246074 0.0635259 
0.470235 -0.222689 0.0726817 0.425063 -0.197222 0.0714723 0.374275 -0.174704 0.0648169 
0.64176 -0.241746 0.0189558 0.626606 -0.223305 0.0413565 0.599901 -0.20692 0.0627593 
0.563573 -0.188337 0.0753771 0.521375 -0.166184 0.0749376 0.474143 -0.145457 0.0659662 
0.421516 -0.129615 0.0558447 0.699133 -0.200922 0.0166869 0.694752 -0.181773 0.0400507 
0.678581 -0.16469 0.0640621 0.64816 -0.147773 0.0816591 0.608263 -0.128299 0.0848151 
0.564178 -0.109089 0.0745966 0.515581 -0.095452 0.059639 0.461298 -0.0874791 0.0472173 
0.0173189 -0.424712 0.0423038 0.0246772 -0.437573 0.0189926 0.112388 -0.419436 0.0273268 
0.0345745 -0.450846 -0.00516662 0.121328 -0.431121 0.00460895 0.217425 -0.41002 0.0145934 
0.0466411 -0.466156 -0.0276027 0.130662 -0.444097 -0.0189945 0.227664 -0.420297 -0.00832469 
0.324868 -0.394944 0.00275907 0.0584986 -0.475104 -0.0438472 0.141559 -0.457291 -0.0397452 
0.236269 -0.432159 -0.0318898 0.336858 -0.405434 -0.0210366 0.427021 -0.373737 -0.00785053 
0.0660722 -0.46552 -0.0516358 0.151286 -0.45919 -0.0525105 0.244024 -0.440267 -0.0502727 
0.344605 -0.41537 -0.0433108 0.440487 -0.385618 -0.0310229 0.519437 -0.34649 -0.0150091 
0.0672197 -0.437113 -0.0539413 0.155097 -0.440781 -0.0569566 0.247769 -0.432471 -0.0591283 
0.347185 -0.414887 -0.0578868 0.445996 -0.390809 -0.0505015 0.531478 -0.356905 -0.0364945 
0.597768 -0.311739 -0.0190304 0.0636576 -0.401379 -0.0552754 0.151989 -0.40784 -0.0576932 
0.244784 -0.406387 -0.0607919 0.342895 -0.396454 -0.0628878 0.442322 -0.379753 -0.0615756 
0.532685 -0.354231 -0.0540566 0.605225 -0.316349 -0.0400923 0.65875 -0.26894 -0.0227883 
-0.138534 -0.4326 0.0594692 -0.209597 -0.428777 0.0566788 -0.132799 -0.444584 0.0346856 
-0.276004 -0.411856 0.0458133 -0.206314 -0.440847 0.0302927 -0.123352 -0.458656 0.00783723 
-0.338565 -0.385407 0.0272728 -0.281143 -0.428318 0.0193985 -0.202667 -0.459092 0.0024656 
-0.114392 -0.475745 -0.0171372 -0.400655 -0.355333 0.0104963 -0.353156 -0.408123 0.00514858 
-0.2868 -0.451565 -0.00564155 -0.201244 -0.476529 -0.020798 -0.108815 -0.483924 -0.0347726 
-0.466552 -0.324754 0.00411381 -0.418622 -0.378352 -0.00375213 -0.363254 -0.430041 -0.012252 
-0.290299 -0.464194 -0.0230614 -0.200667 -0.47506 -0.0343589 -0.106123 -0.470356 -0.0433855 
-0.537652 -0.295846 0.00515548 -0.482761 -0.340564 -0.00500138 -0.427101 -0.390147 -0.0138523 
-0.365404 -0.431452 -0.0224703 -0.288559 -0.450561 -0.0316429 -0.197896 -0.448979 -0.0404683 
-0.104446 -0.438201 -0.0472233 -0.609068 -0.270759 0.00500132 -0.55183 -0.303645 -0.00522036 
-0.489265 -0.34125 -0.0142527 -0.427377 -0.380784 -0.0217425 -0.360608 -0.408869 -0.0290762 
-0.281334 -0.417006 -0.0374636 -0.192162 -0.411285 -0.0454921 -0.102552 -0.40144 -0.0510966 
-0.69802 -0.243561 -0.0168836 -0.714038 -0.228758 -0.038439 -0.639327 -0.262113 -0.0270478 
-0.714618 -0.202342 -0.0625856 -0.647255 -0.241537 -0.04904 -0.566417 -0.280424 -0.0356429 
-0.69855 -0.167935 -0.0863279 -0.640743 -0.213776 -0.0726355 -0.567724 -0.257429 -0.0570583 
-0.490497 -0.305182 -0.0412952 -0.669647 -0.134976 -0.108633 -0.619649 -0.183397 -0.0949975 
-0.556449 -0.23153 -0.0795804 -0.483932 -0.27998 -0.0612355 -0.413687 -0.329406 -0.0456409 
-0.631403 -0.109728 -0.129698 -0.587137 -0.156319 -0.115811 -0.531319 -0.204365 -0.1002 
-0.465316 -0.252601 -0.0818153 -0.396383 -0.29957 -0.0639004 -0.331501 -0.342865 -0.0514394 
-0.585149 -0.089993 -0.147643 -0.545374 -0.134052 -0.134657 -0.494469 -0.178655 -0.118254 
-0.433977 -0.223744 -0.0998374 -0.368902 -0.268576 -0.0819702 -0.304858 -0.310287 -0.067542 
-0.243765 -0.346021 -0.0578728 -0.533255 -0.0717766 -0.159514 -0.49635 -0.113767 -0.14901 
-0.449274 -0.155446 -0.13317 -0.393397 -0.19667 -0.11487 -0.332817 -0.238284 -0.0974704 
-0.271935 -0.278924 -0.0826998 -0.212763 -0.314819 -0.0708657 -0.155324 -0.344336 -0.0621001 
-0.397888 -0.0663031 -0.161522 -0.302973 -0.0777911 -0.153974 -0.354124 -0.105636 -0.151456 
-0.196171 -0.0880424 -0.144713 -0.252081 -0.11696 -0.143262 -0.303173 -0.145935 -0.137107 
-0.0785084 -0.0933507 -0.136563 -0.139134 -0.125495 -0.13566 -0.195714 -0.157121 -0.130766 
-0.246973 -0.185614 -0.121967 0.0454863 -0.089776 -0.130403 -0.0166422 -0.125871 -0.129088 
-0.0783083 -0.161908 -0.125032 -0.13626 -0.194843 -0.117854 -0.188789 -0.223589 -0.107595 
0.166608 -0.0770973 -0.125332 0.108526 -0.116281 -0.122873 0.0460419 -0.155816 -0.118164 
-0.0169555 -0.193763 -0.112121 -0.0768168 -0.228457 -0.103688 -0.131171 -0.258874 -0.0934183 
0.277279 -0.0583663 -0.119532 0.226468 -0.100218 -0.117393 0.168396 -0.142113 -0.111653 
0.105452 -0.182753 -0.105068 0.0415989 -0.22202 -0.0977309 -0.019561 -0.258545 -0.0890007 
-0.0752156 -0.289759 -0.0800981 0.374622 -0.0367136 -0.111657 0.331448 -0.0807273 -0.112103 
0.280283 -0.125307 -0.107649 0.221878 -0.16822 -0.100655 0.159138 -0.209329 -0.0930643 
0.0954263 -0.249082 -0.0849063 0.0340669 -0.28539 -0.0766824 -0.0218689 -0.315539 -0.0695905 
0.114683 -0.339635 -0.0619566 0.177536 -0.305573 -0.0675107 0.208994 -0.338078 -0.0624182 
0.244381 -0.266595 -0.07447 0.279064 -0.298192 -0.0667157 0.30865 -0.33167 -0.062627 
0.310545 -0.223427 -0.0822909 0.350054 -0.253374 -0.0719301 0.384081 -0.285115 -0.0643417 
0.411052 -0.319763 -0.0627951 0.372234 -0.175884 -0.0902525 0.416138 -0.202739 -0.078588 
0.455575 -0.232313 -0.0675638 0.487707 -0.26603 -0.0634064 0.510441 -0.302621 -0.0645944 
0.427105 -0.124671 -0.0965011 0.474132 -0.146748 -0.0855615 0.517967 -0.173239 -0.0731736 
0.555961 -0.205436 -0.0663804 0.583792 -0.242139 -0.0665991 0.598741 -0.278326 -0.0655248 
0.473373 -0.0728045 -0.0984034 0.522758 -0.0894899 -0.0893032 0.569667 -0.111491 -0.0781993 
0.612952 -0.141018 -0.0703126 0.647098 -0.176156 -0.0692303 0.665779 -0.212209 -0.0684249 
0.66898 -0.244041 -0.0598886 0.510709 -0.0232287 -0.0953388 0.561601 -0.0350448 -0.0876858 
0.610386 -0.0519797 -0.0786898 0.657424 -0.0771152 -0.0710713 0.697959 -0.109299 -0.0686575 
0.72245 -0.143254 -0.0681451 0.727127 -0.174826 -0.0611913 0.718341 -0.201584 -0.0458565 
-0.734206 0.303514 0.0125556 -0.750735 0.246873 -0.0173535 -0.769434 0.23958 0.0029121 
-0.769011 0.194183 -0.0504023 -0.801739 0.187642 -0.0327714 -0.810036 0.171521 -0.00954035 
-0.779481 0.147612 -0.0866106 -0.829214 0.141154 -0.0728761 -0.851299 0.126619 -0.0486855 
-0.843774 0.10236 -0.0192376 -0.768793 0.105046 -0.119951 -0.833455 0.0963725 -0.111709 
-0.873561 0.0824025 -0.0903364 -0.876569 0.0597105 -0.0567056 -0.852492 0.0322148 -0.0228023 
-0.732952 0.0664304 -0.142674 -0.803245 0.05308 -0.138262 -0.858599 0.0362309 -0.122966 
-0.879952 0.0128522 -0.0923103 -0.867107 -0.0148923 -0.0539564 -0.835386 -0.0401219 -0.0208849 
-0.680331 0.0316356 -0.15453 -0.746521 0.0152043 -0.149568 -0.806576 -0.00500123 -0.137696 
-0.844868 -0.0314826 -0.114215 -0.853016 -0.062901 -0.0802518 -0.836843 -0.091498 -0.0448002 
-0.80714 -0.111194 -0.0161329 -0.621168 -0.000931093 -0.160722 -0.68022 -0.0175094 -0.153455 
-0.736294 -0.0375312 -0.140678 -0.781345 -0.0639538 -0.121308 -0.807784 -0.0980615 -0.0949697 
-0.813319 -0.132857 -0.0643667 -0.8006 -0.158389 -0.0350613 -0.774784 -0.171805 -0.0109804 
-0.715646 0.355511 0.0676978 -0.730765 0.284961 0.0595537 -0.698898 0.339972 0.0941893 
-0.751449 0.203834 0.0469327 -0.709471 0.264006 0.0817784 -0.671504 0.309971 0.112997 
-0.775888 0.122512 0.0336425 -0.726875 0.180587 0.0650427 -0.680567 0.235612 0.0956956 
-0.634253 0.275146 0.118737 -0.786474 0.0489938 0.0235533 -0.743475 0.0997959 0.0484446 
-0.693407 0.157014 0.0762865 -0.641995 0.206659 0.099715 -0.587645 0.241498 0.115602 
-0.774907 -0.0180884 0.0191226 -0.742684 0.0268437 0.0374164 -0.699432 0.0795156 0.0593385 
-0.648534 0.133192 0.0815696 -0.594072 0.176455 0.0986166 -0.537148 0.206048 0.112979 
-0.75198 -0.0830347 0.0197515 -0.725302 -0.0407441 0.0344275 -0.690585 0.00614832 0.0502812 
-0.646758 0.0572607 0.0673602 -0.596379 0.104529 0.0830861 -0.542859 0.141106 0.0969368 
-0.489769 0.166002 0.113072 -0.725952 -0.142961 0.021917 -0.702345 -0.104218 0.0358063 
-0.672652 -0.0620757 0.0488834 -0.635819 -0.0161506 0.0609375 -0.591583 0.0299463 0.0719693 
-0.54268 0.0699743 0.0828031 -0.493205 0.101215 0.0954365 -0.44728 0.123313 0.112244 
-0.659338 0.445825 0.0888757 -0.641801 0.430533 0.123791 -0.60104 0.463637 0.108484 
-0.610265 0.398297 0.150248 -0.575337 0.44391 0.147838 -0.525331 0.459659 0.12685 
-0.566717 0.358139 0.159454 -0.539039 0.409544 0.17555 -0.496056 0.437847 0.168595 
-0.447678 0.435233 0.140444 -0.515445 0.31558 0.156725 -0.494816 0.36572 0.185127 
-0.462415 0.401139 0.197623 -0.420817 0.409921 0.180985 -0.377706 0.395489 0.146444 
-0.46547 0.269108 0.156885 -0.447801 0.31383 0.187501 -0.424806 0.350714 0.211789 
-0.39219 0.369139 0.210964 -0.352758 0.36567 0.183076 -0.313765 0.346997 0.144237 
-0.424719 0.21954 0.162661 -0.406349 0.256959 0.19428 -0.38638 0.290898 0.221806 
-0.359758 0.315682 0.230322 -0.324703 0.323879 0.211767 -0.287615 0.314336 0.174194 
-0.255014 0.291131 0.130577 -0.3924 0.171383 0.164021 -0.373979 0.202561 0.199142 
-0.352872 0.231392 0.229677 -0.326784 0.257643 0.242558 -0.293977 0.274435 0.229814 
-0.259068 0.274176 0.195322 -0.228626 0.256476 0.149632 -0.20256 0.226919 0.101461 
-0.1879 -0.395194 0.0985308 -0.236841 -0.359209 0.114094 -0.256967 -0.388019 0.0937151 
-0.283393 -0.308442 0.129252 -0.300027 -0.343635 0.105319 -0.311784 -0.363856 0.0774872 
-0.322053 -0.248512 0.143642 -0.338421 -0.284471 0.116943 -0.347491 -0.3114 0.0840219 
-0.359803 -0.325735 0.052932 -0.347493 -0.184877 0.147539 -0.370734 -0.217146 0.125114 
-0.384357 -0.247185 0.0927728 -0.39804 -0.269258 0.0590228 -0.418342 -0.285986 0.0327011 
-0.36279 -0.117761 0.133808 -0.395199 -0.146879 0.12046 -0.421352 -0.177182 0.097789 
-0.444016 -0.205868 0.0697151 -0.467962 -0.231021 0.0441845 -0.492947 -0.25483 0.0259988 
-0.376935 -0.0474742 0.11352 -0.414333 -0.0752902 0.104947 -0.452038 -0.105663 0.09276 
-0.487501 -0.138431 0.0764008 -0.519579 -0.171627 0.0582652 -0.548078 -0.203102 0.0415423 
-0.571334 -0.232174 0.0278116 -0.393319 0.0206482 0.104316 -0.431746 -0.00487476 0.0936876 
-0.474367 -0.0349087 0.0846393 -0.517956 -0.0693541 0.0757902 -0.55805 -0.107376 0.0659458 
-0.591967 -0.145574 0.0542151 -0.619385 -0.181062 0.0410659 -0.639773 -0.212424 0.0278073 

POLYGONS 2001 6000
OFFSETS vtktypeint64
0 3 6 9 12 15 18 21 24 
27 30 33 36 39 42 45 48 51 
54 57 60 63 66 69 72 75 78 
81 84 87 90 93 96 99 102 105 
108 111 114 117 120 123 126 129 132 
135 138 141 144 147 150 153 156 159 
162 165 168 171 174 177 180 183 186 
189 192 195 198 201 204 207 210 213 
216 219 222 225 228 231 234 237 240 
243 246 249 252 255 258 261 264 267 
270 273 276 279 282 285 288 291 294 
297 300 303 306 309 312 315 318 321 
324 327 330 333 336 339 342 345 348 
351 354 357 360 363 366 369 372 375 
378 381 384 387 390 393 396 399 402 
405 408 411 414 417 420 423 426 429 
432 435 438 441 444 447 450 453 456 
459 462 465 468 471 474 477 480 483 
486 489 492 495 498 501 504 507 510 
513 516 519 522 525 528 531 534 537 
540 543 546 549 552 555 558 561 564 
567 570 573 576 579 582 585 588 591 
594 597 600 603 606 609 612 615 618 
621 624 627 630 633 636 639 642 645 
648 651 654 657 660 663 666 669 672 
675 678 681 684 687 690 693 696 699 
702 705 708 711 714 717 720 723 726 
729 732 735 738 741 744 747 750 753 
756 759 762 765 768 771 774 777 780 
783 786 789 792 795 798 801 804 807 
810 813 816 819 822 825 828 831 834 
837 840 843 846 849 852 855 858 861 
864 867 870 873 876 879 882 885 888 
891 894 897 900 903 906 909 912 915 
918 921 924 927 930 933 936 939 942 
945 948 951 954 957 960 963 966 969 
972 975 978 981 984 987 990 993 996 
999 1002 1005 1008 1011 1014 1017 1020 1023 
1026 1029 1032 1035 1038 1041 1044 1047 1050 
1053 1056 1059 1062 1065 1068 1071 1074 1077 
1080 1083 1086 1089 1092 1095 1098 1101 1104 
1107 1110 1113 1116 1119 1122 1125 1128 1131 
1134 1137 1140 1143 1146 1149 1152 1155 1158 
1161 1164 1167 1170 1173 1176 1179 1182 1185 
1188 1191 1194 1197 1200 1203 1206 1209 1212 
1215 1218 1221 1224 1227 1230 1233 1236 1239 
1242 1245 1248 1251 1254 1257 1260 1263 1266 
1269 1272 1275 1278 1281 1284 1287 1290 1293 
1296 1299 1302 1305 1308 1311 1314 1317 1320 
1323 1326 1329 1332 1335 1338 1341 1344 1347 
1350 1353 1356 1359 1362 1365 1368 1371 1374 
1377 1380 1383 1386 1389 1392 1395 1398 1401 
1404 1407 1410 1413 1416 1419 1422 1425 1428 
1431 1434 1437 1440 1443 1446 1449 1452 1455 
1458 1461 1464 1467 1470 1473 1476 1479 1482 
1485 1488 1491 1494 1497 1500 1503 1506 1509 
1512 1515 1518 1521 1524 1527 1530 1533 1536 
1539 1542 1545 1548 1551 1554 1557 1560 1563 
1566 1569 1572 1575 1578 1581 1584 1587 1590 
1593 1596 1599 1602 1605 1608 1611 1614 1617 
1620 1623 1626 1629 1632 1635 1638 1641 1644 
1647 1650 1653 1656 1659 1662 1665 1668 1671 
1674 1677 1680 1683 1686 1689 1692 1695 1698 
1701 1704 1707 1710 1713 1716 1719 1722 1725 
1728 1731 1734 1737 1740 1743 1746 1749 1752 
1755 1758 1761 1764 1767 1770 1773 1776 1779 
1782 1785 1788 1791 1794 1797 1800 1803 1806 
1809 1812 1815 1818 1821 1824 1827 1830 1833 
1836 1839 1842 1845 1848 1851 1854 1857 1860 
1863 1866 1869 1872 1875 1878 1881 1884 1887 
1890 1893 1896 1899 1902 1905 1908 1911 1914 
1917 1920 1923 1926 1929 1932 1935 1938 1941 
1944 1947 1950 1953 1956 1959 1962 1965 1968 
1971 1974 1977 1980 1983 1986 1989 1992 1995 
1998 2001 2004 2007 2010 2013 2016 2019 2022 
2025 2028 2031 2034 2037 2040 2043 2046 2049 
2052 2055 2058 2061 2064 2067 2070 2073 2076 
2079 2082 2085 2088 2091 2094 2097 2100 2103 
2106 2109 2112 2115 2118 2121 2124 2127 2130 
2133 2136 2139 2142 2145 2148 2151 2154 2157 
2160 2163 2166 2169 2172 2175 2178 2181 2184 
2187 2190 2193 2196 2199 2202 2205 2208 2211 
2214 2217 2220 2223 2226 2229 2232 2235 2238 
2241 2244 2247 2250 2253 2256 2259 2262 2265 
2268 2271 2274 2277 2280 2283 2286 2289 2292 
2295 2298 2301 2304 2307 2310 2313 2316 2319 
2322 2325 2328 2331 2334 2337 2340 2343 2346 
2349 2352 2355 2358 2361 2364 2367 2370 2373 
2376 2379 2382 2385 2388 2391 2394 2397 2400 
2403 2406 2409 2412 2415 2418 2421 2424 2427 
2430 2433 2436 2439 2442 2445 2448 2451 2454 
2457 2460 2463 2466 2469 2472 2475 2478 2481 
2484 2487 2490 2493 2496 2499 2502 2505 2508 
2511 2514 2517 2520 2523 2526 2529 2532 2535 
2538 2541 2544 2547 2550 2553 2556 2559 2562 
2565 2568 2571 2574 2577 2580 2583 2586 2589 
2592 2595 2598 2601 2604 2607 2610 2613 2616 
2619 2622 2625 2628 2631 2634 2637 2640 2643 
2646 2649 2652 2655 2658 2661 2664 2667 2670 
2673 2676 2679 2682 2685 2688 2691 2694 2697 
2700 2703 2706 2709 2712 2715 2718 2721 2724 
2727 2730 2733 2736 2739 2742 2745 2748 2751 
2754 2757 2760 2763 2766 2769 2772 2775 2778 
2781 2784 2787 2790 2793 2796 2799 2802 2805 
2808 2811 2814 2817 2820 2823 2826 2829 2832 
2835 2838 2841 2844 2847 2850 2853 2856 2859 
2862 2865 2868 2871 2874 2877 2880 2883 2886 
2889 2892 2895 2898 2901 2904 2907 2910 2913 
2916 2919 2922 2925 2928 2931 2934 2937 2940 
2943 2946 2949 2952 2955 2958 2961 2964 2967 
2970 2973 2976 2979 2982 2985 2988 2991 2994 
2997 3000 3003 3006 3009 3012 3015 3018 3021 
3024 3027 3030 3033 3036 3039 3042 3045 3048 
3051 3054 3057 3060 3063 3066 3069 3072 3075 
3078 3081 3084 3087 3090 3093 3096 3099 3102 
3105 3108 3111 3114 3117 3120 3123 3126 3129 
3132 3135 3138 3141 3144 3147 3150 3153 3156 
3159 3162 3165 3168 3171 3174 3177 3180 3183 
3186 3189 3192 3195 3198 3201 3204 3207 3210 
3213 3216 3219 3222 3225 3228 3231 3234 3237 
3240 3243 3246 3249 3252 3255 3258 3261 3264 
3267 3270 3273 3276 3279 3282 3285 3288 3291 
3294 3297 3300 3303 3306 3309 3312 3315 3318 
3321 3324 3327 3330 3333 3336 3339 3342 3345 
3348 3351 3354 3357 3360 3363 3366 3369 3372 
3375 3378 3381 3384 3387 3390 3393 3396 3399 
3402 3405 3408 3411 3414 3417 3420 3423 3426 
3429 3432 3435 3438 3441 3444 3447 3450 3453 
3456 3459 3462 3465 3468 3471 3474 3477 3480 
3483 3486 3489 3492 3495 3498 3501 3504 3507 
3510 3513 3516 3519 3522 3525 3528 3531 3534 
3537 3540 3543 3546 3549 3552 3555 3558 3561 
3564 3567 3570 3573 3576 3579 3582 3585 3588 
3591 3594 3597 3600 3603 3606 3609 3612 3615 
3618 3621 3624 3627 3630 3633 3636 3639 3642 
3645 3648 3651 3654 3657 3660 3663 3666 3669 
3672 3675 3678 3681 3684 3687 3690 3693 3696 
3699 3702 3705 3708 3711 3714 3717 3720 3723 
3726 3729 3732 3735 3738 3741 3744 3747 3750 
3753 3756 3759 3762 3765 3768 3771 3774 3777 
3780 3783 3786 3789 3792 3795 3798 3801 3804 
3807 3810 3813 3816 3819 3822 3825 3828 3831 
3834 3837 3840 3843 3846 3849 3852 3855 3858 
3861 3864 3867 3870 3873 3876 3879 3882 3885 
3888 3891 3894 3897 3900 3903 3906 3909 3912 
3915 3918 3921 3924 3927 3930 3933 3936 3939 
3942 3945 3948 3951 3954 3957 3960 3963 3966 
3969 3972 3975 3978 3981 3984 3987 3990 3993 
3996 3999 4002 4005 4008 4011 4014 4017 4020 
4023 4026 4029 4032 4035 4038 4041 4044 4047 
4050 4053 4056 4059 4062 4065 4068 4071 4074 
4077 4080 4083 4086 4089 4092 4095 4098 4101 
4104 4107 4110 4113 4116 4119 4122 4125 4128 
4131 4134 4137 4140 4143 4146 4149 4152 4155 
4158 4161 4164 4167 4170 4173 4176 4179 4182 
4185 4188 4191 4194 4197 4200 4203 4206 4209 
4212 4215 4218 4221 4224 4227 4230 4233 4236 
4239 4242 4245 4248 4251 4254 4257 4260 4263 
4266 4269 4272 4275 4278 4281 4284 4287 4290 
4293 4296 4299 4302 4305 4308 4311 4314 4317 
4320 4323 4326 4329 4332 4335 4338 4341 4344 
4347 4350 4353 4356 4359 4362 4365 4368 4371 
4374 4377 4380 4383 4386 4389 4392 4395 4398 
4401 4404 4407 4410 4413 4416 4419 4422 4425 
4428 4431 4434 4437 4440 4443 4446 4449 4452 
4455 4458 4461 4464 4467 4470 4473 4476 4479 
4482 4485 4488 4491 4494 4497 4500 4503 4506 
4509 4512 4515 4518 4521 4524 4527 4530 4533 
4536 4539 4542 4545 4548 4551 4554 4557 4560 
4563 4566 4569 4572 4575 4578 4581 4584 4587 
4590 4593 4596 4599 4602 4605 4608 4611 4614 
4617 4620 4623 4626 4629 4632 4635 4638 4641 
4644 4647 4650 4653 4656 4659 4662 4665 4668 
4671 4674 4677 4680 4683 4686 4689 4692 4695 
4698 4701 4704 4707 4710 4713 4716 4719 4722 
4725 4728 4731 4734 4737 4740 4743 4746 4749 
4752 4755 4758 4761 4764 4767 4770 4773 4776 
4779 4782 4785 4788 4791 4794 4797 4800 4803 
4806 4809 4812 4815 4818 4821 4824 4827 4830 
4833 4836 4839 4842 4845 4848 4851 4854 4857 
4860 4863 4866 4869 4872 4875 4878 4881 4884 
4887 4890 4893 4896 4899 4902 4905 4908 4911 
4914 4917 4920 4923 4926 4929 4932 4935 4938 
4941 4944 4947 4950 4953 4956 4959 4962 4965 
4968 4971 4974 4977 4980 4983 4986 4989 4992 
4995 4998 5001 5004 5007 5010 5013 5016 5019 
5022 5025 5028 5031 5034 5037 5040 5043 5046 
5049 5052 5055 5058 5061 5064 5067 5070 5073 
5076 5079 5082 5085 5088 5091 5094 5097 5100 
5103 5106 5109 5112 5115 5118 5121 5124 5127 
5130 5133 5136 5139 5142 5145 5148 5151 5154 
5157 5160 5163 5166 5169 5172 5175 5178 5181 
5184 5187 5190 5193 5196 5199 5202 5205 5208 
5211 5214 5217 5220 5223 5226 5229 5232 5235 
5238 5241 5244 5247 5250 5253 5256 5259 5262 
5265 5268 5271 5274 5277 5280 5283 5286 5289 
5292 5295 5298 5301 5304 5307 5310 5313 5316 
5319 5322 5325 5328 5331 5334 5337 5340 5343 
5346 5349 5352 5355 5358 5361 5364 5367 5370 
5373 5376 5379 5382 5385 5388 5391 5394 5397 
5400 5403 5406 5409 5412 5415 5418 5421 5424 
5427 5430 5433 5436 5439 5442 5445 5448 5451 
5454 5457 5460 5463 5466 5469 5472 5475 5478 
5481 5484 5487 5490 5493 5496 5499 5502 5505 
5508 5511 5514 5517 5520 5523 5526 5529 5532 
5535 5538 5541 5544 5547 5550 5553 5556 5559 
5562 5565 5568 5571 5574 5577 5580 5583 5586 
5589 5592 5595 5598 5601 5604 5607 5610 5613 
5616 5619 5622 5625 5628 5631 5634 5637 5640 
5643 5646 5649 5652 5655 5658 5661 5664 5667 
5670 5673 5676 5679 5682 5685 5688 5691 5694 
5697 5700 5703 5706 5709 5712 5715 5718 5721 
5724 5727 5730 5733 5736 5739 5742 5745 5748 
5751 5754 5757 5760 5763 5766 5769 5772 5775 
5778 5781 5784 5787 5790 5793 5796 5799 5802 
5805 5808 5811 5814 5817 5820 5823 5826 5829 
5832 5835 5838 5841 5844 5847 5850 5853 5856 
5859 5862 5865 5868 5871 5874 5877 5880 5883 
5886 5889 5892 5895 5898 5901 5904 5907 5910 
5913 5916 5919 5922 5925 5928 5931 5934 5937 
5940 5943 5946 5949 5952 5955 5958 5961 5964 
5967 5970 5973 5976 5979 5982 5985 5988 5991 
5994 5997 6000 
CONNECTIVITY vtktypeint64
12 0 21 282 21 22 282 12 21 
13 12 282 283 22 23 283 282 22 
284 282 283 284 13 282 14 13 284 
285 23 24 285 283 23 286 283 285 
286 284 283 287 284 286 287 14 284 
15 14 287 288 24 25 288 285 24 
289 285 288 289 286 285 290 286 289 
290 287 286 291 287 290 291 15 287 
16 15 291 292 25 26 292 288 25 
293 288 292 293 289 288 294 289 293 
294 290 289 295 290 294 295 291 290 
296 291 295 296 16 291 17 16 296 
297 26 27 297 292 26 298 292 297 
298 293 292 299 293 298 299 294 293 
300 294 299 300 295 294 301 295 300 
301 296 295 302 296 301 302 17 296 
18 17 302 303 27 28 303 297 27 
304 297 303 304 298 297 305 298 304 
305 299 298 306 299 305 306 300 299 
307 300 306 307 301 300 308 301 307 
308 302 301 309 302 308 309 18 302 
19 18 309 310 28 29 310 303 28 
311 303 310 311 304 303 312 304 311 
312 305 304 313 305 312 313 306 305 
314 306 313 314 307 306 315 307 314 
315 308 307 316 308 315 316 309 308 
317 309 316 317 19 309 20 19 317 
65 29 4 65 310 29 64 310 65 
64 311 310 63 311 64 63 312 311 
62 312 63 62 313 312 61 313 62 
61 314 313 60 314 61 60 315 314 
59 315 60 59 316 315 58 316 59 
58 317 316 57 317 58 57 20 317 
1 20 57 21 0 39 318 39 40 
318 21 39 22 21 318 319 40 41 
319 318 40 320 318 319 320 22 318 
23 22 320 321 41 42 321 319 41 
322 319 321 322 320 319 323 320 322 
323 23 320 24 23 323 324 42 43 
324 321 42 325 321 324 325 322 321 
326 322 325 326 323 322 327 323 326 
327 24 323 25 24 327 328 43 44 
328 324 43 329 324 328 329 325 324 
330 325 329 330 326 325 331 326 330 
331 327 326 332 327 331 332 25 327 
26 25 332 333 44 45 333 328 44 
334 328 333 334 329 328 335 329 334 
335 330 329 336 330 335 336 331 330 
337 331 336 337 332 331 338 332 337 
338 26 332 27 26 338 339 45 46 
339 333 45 340 333 339 340 334 333 
341 334 340 341 335 334 342 335 341 
342 336 335 343 336 342 343 337 336 
344 337 343 344 338 337 345 338 344 
345 27 338 28 27 345 346 46 47 
346 339 46 347 339 346 347 340 339 
348 340 347 348 341 340 349 341 348 
349 342 341 350 342 349 350 343 342 
351 343 350 351 344 343 352 344 351 
352 345 344 353 345 352 353 28 345 
29 28 353 200 47 9 200 346 47 
199 346 200 199 347 346 198 347 199 
198 348 347 197 348 198 197 349 348 
196 349 197 196 350 349 195 350 196 
195 351 350 194 351 195 194 352 351 
193 352 194 193 353 352 192 353 193 
192 29 353 4 29 192 200 9 218 
354 218 217 354 200 218 199 200 354 
355 217 216 355 354 217 356 354 355 
356 199 354 198 199 356 357 216 215 
357 355 216 358 355 357 358 356 355 
359 356 358 359 198 356 197 198 359 
360 215 214 360 357 215 361 357 360 
361 358 357 362 358 361 362 359 358 
363 359 362 363 197 359 196 197 363 
364 214 213 364 360 214 365 360 364 
365 361 360 366 361 365 366 362 361 
367 362 366 367 363 362 368 363 367 
368 196 363 195 196 368 369 213 212 
369 364 213 370 364 369 370 365 364 
371 365 370 371 366 365 372 366 371 
372 367 366 373 367 372 373 368 367 
374 368 373 374 195 368 194 195 374 
375 212 211 375 369 212 376 369 375 
376 370 369 377 370 376 377 371 370 
378 371 377 378 372 371 379 372 378 
379 373 372 380 373 379 380 374 373 
381 374 380 381 194 374 193 194 381 
382 211 210 382 375 211 383 375 382 
383 376 375 384 376 383 384 377 376 
385 377 384 385 378 377 386 378 385 
386 379 378 387 379 386 387 380 379 
388 380 387 388 381 380 389 381 388 
389 193 381 192 193 389 182 210 5 
182 382 210 181 382 182 181 383 382 
180 383 181 180 384 383 179 384 180 
179 385 384 178 385 179 178 386 385 
177 386 178 177 387 386 176 387 177 
176 388 387 175 388 176 175 389 388 
174 389 175 174 192 389 4 192 174 
183 4 174 390 174 175 390 183 174 
184 183 390 391 175 176 391 390 175 
392 390 391 392 184 390 185 184 392 
393 176 177 393 391 176 394 391 393 
394 392 391 395 392 394 395 185 392 
186 185 395 396 177 178 396 393 177 
397 393 396 397 394 393 398 394 397 
398 395 394 399 395 398 399 186 395 
187 186 399 400 178 179 400 396 178 
401 396 400 401 397 396 402 397 401 
402 398 397 403 398 402 403 399 398 
404 399 403 404 187 399 188 187 404 
405 179 180 405 400 179 406 400 405 
406 401 400 407 401 406 407 402 401 
408 402 407 408 403 402 409 403 408 
409 404 403 410 404 409 410 188 404 
189 188 410 411 180 181 411 405 180 
412 405 411 412 406 405 413 406 412 
413 407 406 414 407 413 414 408 407 
415 408 414 415 409 408 416 409 415 
416 410 409 417 410 416 417 189 410 
190 189 417 418 181 182 418 411 181 
419 411 418 419 412 411 420 412 419 
420 413 412 421 413 420 421 414 413 
422 414 421 422 415 414 423 415 422 
423 416 415 424 416 423 424 417 416 
425 417 424 425 190 417 191 190 425 
201 182 5 201 418 182 202 418 201 
202 419 418 203 419 202 203 420 419 
204 420 203 204 421 420 205 421 204 
205 422 421 206 422 205 206 423 422 
207 423 206 207 424 423 208 424 207 
208 425 424 209 425 208 209 191 425 
8 191 209 65 4 183 426 183 184 
426 65 183 64 65 426 427 184 185 
427 426 184 428 426 427 428 64 426 
63 64 428 429 185 186 429 427 185 
430 427 429 430 428 427 431 428 430 
431 63 428 62 63 431 432 186 187 
432 429 186 433 429 432 433 430 429 
434 430 433 434 431 430 435 431 434 
435 62 431 61 62 435 436 187 188 
436 432 187 437 432 436 437 433 432 
438 433 437 438 434 433 439 434 438 
439 435 434 440 435 439 440 61 435 
60 61 440 441 188 189 441 436 188 
442 436 441 442 437 436 443 437 442 
443 438 437 444 438 443 444 439 438 
445 439 444 445 440 439 446 440 445 
446 60 440 59 60 446 447 189 190 
447 441 189 448 441 447 448 442 441 
449 442 448 449 443 442 450 443 449 
450 444 443 451 444 450 451 445 444 
452 445 451 452 446 445 453 446 452 
453 59 446 58 59 453 454 190 191 
454 447 190 455 447 454 455 448 447 
456 448 455 456 449 448 457 449 456 
457 450 449 458 450 457 458 451 450 
459 451 458 459 452 451 460 452 459 
460 453 452 461 453 460 461 58 453 
57 58 461 83 191 8 83 454 191 
82 454 83 82 455 454 81 455 82 
81 456 455 80 456 81 80 457 456 
79 457 80 79 458 457 78 458 79 
78 459 458 77 459 78 77 460 459 
76 460 77 76 461 460 75 461 76 
75 57 461 1 57 75 83 8 264 
462 264 265 462 83 264 82 83 462 
463 265 266 463 462 265 464 462 463 
464 82 462 81 82 464 465 266 267 
465 463 266 466 463 465 466 464 463 
467 464 466 467 81 464 80 81 467 
468 267 268 468 465 267 469 465 468 
469 466 465 470 466 469 470 467 466 
471 467 470 471 80 467 79 80 471 
472 268 269 472 468 268 473 468 472 
473 469 468 474 469 473 474 470 469 
475 470 474 475 471 470 476 471 475 
476 79 471 78 79 476 477 269 270 
477 472 269 478 472 477 478 473 472 
479 473 478 479 474 473 480 474 479 
480 475 474 481 475 480 481 476 475 
482 476 481 482 78 476 77 78 482 
483 270 271 483 477 270 484 477 483 
484 478 477 485 478 484 485 479 478 
486 479 485 486 480 479 487 480 486 
487 481 480 488 481 487 488 482 481 
489 482 488 489 77 482 76 77 489 
490 271 272 490 483 271 491 483 490 
491 484 483 492 484 491 492 485 484 
493 485 492 493 486 485 494 486 493 
494 487 486 495 487 494 495 488 487 
496 488 495 496 489 488 497 489 496 
497 76 489 75 76 497 92 272 10 
92 490 272 91 490 92 91 491 490 
90 491 91 90 492 491 89 492 90 
89 493 492 88 493 89 88 494 493 
87 494 88 87 495 494 86 495 87 
86 496 495 85 496 86 85 497 496 
84 497 85 84 75 497 1 75 84 
264 8 164 498 164 163 498 264 164 
265 264 498 499 163 162 499 498 163 
500 498 499 500 265 498 266 265 500 
501 162 161 501 499 162 502 499 501 
502 500 499 503 500 502 503 266 500 
267 266 503 504 161 160 504 501 161 
505 501 504 505 502 501 506 502 505 
506 503 502 507 503 506 507 267 503 
268 267 507 508 160 159 508 504 160 
509 504 508 509 505 504 510 505 509 
510 506 505 511 506 510 511 507 506 
512 507 511 512 268 507 269 268 512 
513 159 158 513 508 159 514 508 513 
514 509 508 515 509 514 515 510 509 
516 510 515 516 511 510 517 511 516 
517 512 511 518 512 517 518 269 512 
270 269 518 519 158 157 519 513 158 
520 513 519 520 514 513 521 514 520 
521 515 514 522 515 521 522 516 515 
523 516 522 523 517 516 524 517 523 
524 518 517 525 518 524 525 270 518 
271 270 525 526 157 156 526 519 157 
527 519 526 527 520 519 528 520 527 
528 521 520 529 521 528 529 522 521 
530 522 529 530 523 522 531 523 530 
531 524 523 532 524 531 532 525 524 
533 525 532 533 271 525 272 271 533 
165 156 3 165 526 156 166 526 165 
166 527 526 167 527 166 167 528 527 
168 528 167 168 529 528 169 529 168 
169 530 529 170 530 169 170 531 530 
171 531 170 171 532 531 172 532 171 
172 533 532 173 533 172 173 272 533 
10 272 173 201 5 146 534 146 145 
534 201 146 202 201 534 535 145 144 
535 534 145 536 534 535 536 202 534 
203 202 536 537 144 143 537 535 144 
538 535 537 538 536 535 539 536 538 
539 203 536 204 203 539 540 143 142 
540 537 143 541 537 540 541 538 537 
542 538 541 542 539 538 543 539 542 
543 204 539 205 204 543 544 142 141 
544 540 142 545 540 544 545 541 540 
546 541 545 546 542 541 547 542 546 
547 543 542 548 543 547 548 205 543 
206 205 548 549 141 140 549 544 141 
550 544 549 550 545 544 551 545 550 
551 546 545 552 546 551 552 547 546 
553 547 552 553 548 547 554 548 553 
554 206 548 207 206 554 555 140 139 
555 549 140 556 549 555 556 550 549 
557 550 556 557 551 550 558 551 557 
558 552 551 559 552 558 559 553 552 
560 553 559 560 554 553 561 554 560 
561 207 554 208 207 561 562 139 138 
562 555 139 563 555 562 563 556 555 
564 556 563 564 557 556 565 557 564 
565 558 557 566 558 565 566 559 558 
567 559 566 567 560 559 568 560 567 
568 561 560 569 561 568 569 208 561 
209 208 569 156 138 3 156 562 138 
157 562 156 157 563 562 158 563 157 
158 564 563 159 564 158 159 565 564 
160 565 159 160 566 565 161 566 160 
161 567 566 162 567 161 162 568 567 
163 568 162 163 569 568 164 569 163 
164 209 569 8 209 164 146 5 110 
570 110 109 570 146 110 145 146 570 
571 109 108 571 570 109 572 570 571 
572 145 570 144 145 572 573 108 107 
573 571 108 574 571 573 574 572 571 
575 572 574 575 144 572 143 144 575 
576 107 106 576 573 107 577 573 576 
577 574 573 578 574 577 578 575 574 
579 575 578 579 143 575 142 143 579 
580 106 105 580 576 106 581 576 580 
581 577 576 582 577 581 582 578 577 
583 578 582 583 579 578 584 579 583 
584 142 579 141 142 584 585 105 104 
585 580 105 586 580 585 586 581 580 
587 581 586 587 582 581 588 582 587 
588 583 582 589 583 588 589 584 583 
590 584 589 590 141 584 140 141 590 
591 104 103 591 585 104 592 585 591 
592 586 585 593 586 592 593 587 586 
594 587 593 594 588 587 595 588 594 
595 589 588 596 589 595 596 590 589 
597 590 596 597 140 590 139 140 597 
598 103 102 598 591 103 599 591 598 
599 592 591 600 592 599 600 593 592 
601 593 600 601 594 593 602 594 601 
602 595 594 603 595 602 603 596 595 
604 596 603 604 597 596 605 597 604 
605 139 597 138 139 605 93 102 2 
93 598 102 94 598 93 94 599 598 
95 599 94 95 600 599 96 600 95 
96 601 600 97 601 96 97 602 601 
98 602 97 98 603 602 99 603 98 
99 604 603 100 604 99 100 605 604 
101 605 100 101 138 605 3 138 101 
93 2 111 606 111 112 606 93 111 
94 93 606 607 112 113 607 606 112 
608 606 607 608 94 606 95 94 608 
609 113 114 609 607 113 610 607 609 
610 608 607 611 608 610 611 95 608 
96 95 611 612 114 115 612 609 114 
613 609 612 613 610 609 614 610 613 
614 611 610 615 611 614 615 96 611 
97 96 615 616 115 116 616 612 115 
617 612 616 617 613 612 618 613 617 
618 614 613 619 614 618 619 615 614 
620 615 619 620 97 615 98 97 620 
621 116 117 621 616 116 622 616 621 
622 617 616 623 617 622 623 618 617 
624 618 623 624 619 618 625 619 624 
625 620 619 626 620 625 626 98 620 
99 98 626 627 117 118 627 621 117 
628 621 627 628 622 621 629 622 628 
629 623 622 630 623 629 630 624 623 
631 624 630 631 625 624 632 625 631 
632 626 625 633 626 632 633 99 626 
100 99 633 634 118 119 634 627 118 
635 627 634 635 628 627 636 628 635 
636 629 628 637 629 636 637 630 629 
638 630 637 638 631 630 639 631 638 
639 632 631 640 632 639 640 633 632 
641 633 640 641 100 633 101 100 641 
155 119 7 155 634 119 154 634 155 
154 635 634 153 635 154 153 636 635 
152 636 153 152 637 636 151 637 152 
151 638 637 150 638 151 150 639 638 
149 639 150 149 640 639 148 640 149 
148 641 640 147 641 148 147 101 641 
3 101 147 155 7 246 642 246 247 
642 155 246 154 155 642 643 247 248 
643 642 247 644 642 643 644 154 642 
153 154 644 645 248 249 645 643 248 
646 643 645 646 644 643 647 644 646 
647 153 644 152 153 647 648 249 250 
648 645 249 649 645 648 649 646 645 
650 646 649 650 647 646 651 647 650 
651 152 647 151 152 651 652 250 251 
652 648 250 653 648 652 653 649 648 
654 649 653 654 650 649 655 650 654 
655 651 650 656 651 655 656 151 651 
150 151 656 657 251 252 657 652 251 
658 652 657 658 653 652 659 653 658 
659 654 653 660 654 659 660 655 654 
661 655 660 661 656 655 662 656 661 
662 150 656 149 150 662 663 252 253 
663 657 252 664 657 663 664 658 657 
665 658 664 665 659 658 666 659 665 
666 660 659 667 660 666 667 661 660 
668 661 667 668 662 661 669 662 668 
669 149 662 148 149 669 670 253 254 
670 663 253 671 663 670 671 664 663 
672 664 671 672 665 664 673 665 672 
673 666 665 674 666 673 674 667 666 
675 667 674 675 668 667 676 668 675 
676 669 668 677 669 676 677 148 669 
147 148 677 173 254 10 173 670 254 
172 670 173 172 671 670 171 671 172 
171 672 671 170 672 171 170 673 672 
169 673 170 169 674 673 168 674 169 
168 675 674 167 675 168 167 676 675 
166 676 167 166 677 676 165 677 166 
165 147 677 3 147 165 246 7 227 
678 227 226 678 246 227 247 246 678 
679 226 225 679 678 226 680 678 679 
680 247 678 248 247 680 681 225 224 
681 679 225 682 679 681 682 680 679 
683 680 682 683 248 680 249 248 683 
684 224 223 684 681 224 685 681 684 
685 682 681 686 682 685 686 683 682 
687 683 686 687 249 683 250 249 687 
688 223 222 688 684 223 689 684 688 
689 685 684 690 685 689 690 686 685 
691 686 690 691 687 686 692 687 691 
692 250 687 251 250 692 693 222 221 
693 688 222 694 688 693 694 689 688 
695 689 694 695 690 689 696 690 695 
696 691 690 697 691 696 697 692 691 
698 692 697 698 251 692 252 251 698 
699 221 220 699 693 221 700 693 699 
700 694 693 701 694 700 701 695 694 
702 695 701 702 696 695 703 696 702 
703 697 696 704 697 703 704 698 697 
705 698 704 705 252 698 253 252 705 
706 220 219 706 699 220 707 699 706 
707 700 699 708 700 707 708 701 700 
709 701 708 709 702 701 710 702 709 
710 703 702 711 703 710 711 704 703 
712 704 711 712 705 704 713 705 712 
713 253 705 254 253 713 228 219 6 
228 706 219 229 706 228 229 707 706 
230 707 229 230 708 707 231 708 230 
231 709 708 232 709 231 232 710 709 
233 710 232 233 711 710 234 711 233 
234 712 711 235 712 234 235 713 712 
236 713 235 236 254 713 10 254 236 
227 7 255 714 255 256 714 227 255 
226 227 714 715 256 257 715 714 256 
716 714 715 716 226 714 225 226 716 
717 257 258 717 715 257 718 715 717 
718 716 715 719 716 718 719 225 716 
224 225 719 720 258 259 720 717 258 
721 717 720 721 718 717 722 718 721 
722 719 718 723 719 722 723 224 719 
223 224 723 724 259 260 724 720 259 
725 720 724 725 721 720 726 721 725 
726 722 721 727 722 726 727 723 722 
728 723 727 728 223 723 222 223 728 
729 260 261 729 724 260 730 724 729 
730 725 724 731 725 730 731 726 725 
732 726 731 732 727 726 733 727 732 
733 728 727 734 728 733 734 222 728 
221 222 734 735 261 262 735 729 261 
736 729 735 736 730 729 737 730 736 
737 731 730 738 731 737 738 732 731 
739 732 738 739 733 732 740 733 739 
740 734 733 741 734 740 741 221 734 
220 221 741 742 262 263 742 735 262 
743 735 742 743 736 735 744 736 743 
744 737 736 745 737 744 745 738 737 
746 738 745 746 739 738 747 739 746 
747 740 739 748 740 747 748 741 740 
749 741 748 749 220 741 219 220 749 
245 263 11 245 742 263 244 742 245 
244 743 742 243 743 244 243 744 743 
242 744 243 242 745 744 241 745 242 
241 746 745 240 746 241 240 747 746 
239 747 240 239 748 747 238 748 239 
238 749 748 237 749 238 237 219 749 
6 219 237 245 11 56 750 56 55 
750 245 56 244 245 750 751 55 54 
751 750 55 752 750 751 752 244 750 
243 244 752 753 54 53 753 751 54 
754 751 753 754 752 751 755 752 754 
755 243 752 242 243 755 756 53 52 
756 753 53 757 753 756 757 754 753 
758 754 757 758 755 754 759 755 758 
759 242 755 241 242 759 760 52 51 
760 756 52 761 756 760 761 757 756 
762 757 761 762 758 757 763 758 762 
763 759 758 764 759 763 764 241 759 
240 241 764 765 51 50 765 760 51 
766 760 765 766 761 760 767 761 766 
767 762 761 768 762 767 768 763 762 
769 763 768 769 764 763 770 764 769 
770 240 764 239 240 770 771 50 49 
771 765 50 772 765 771 772 766 765 
773 766 772 773 767 766 774 767 773 
774 768 767 775 768 774 775 769 768 
776 769 775 776 770 769 777 770 776 
777 239 770 238 239 777 778 49 48 
778 771 49 779 771 778 779 772 771 
780 772 779 780 773 772 781 773 780 
781 774 773 782 774 781 782 775 774 
783 775 782 783 776 775 784 776 783 
784 777 776 785 777 784 785 238 777 
237 238 785 30 48 0 30 778 48 
31 778 30 31 779 778 32 779 31 
32 780 779 33 780 32 33 781 780 
34 781 33 34 782 781 35 782 34 
35 783 782 36 783 35 36 784 783 
37 784 36 37 785 784 38 785 37 
38 237 785 6 237 38 30 0 12 
786 12 13 786 30 12 31 30 786 
787 13 14 787 786 13 788 786 787 
788 31 786 32 31 788 789 14 15 
789 787 14 790 787 789 790 788 787 
791 788 790 791 32 788 33 32 791 
792 15 16 792 789 15 793 789 792 
793 790 789 794 790 793 794 791 790 
795 791 794 795 33 791 34 33 795 
796 16 17 796 792 16 797 792 796 
797 793 792 798 793 797 798 794 793 
799 794 798 799 795 794 800 795 799 
800 34 795 35 34 800 801 17 18 
801 796 17 802 796 801 802 797 796 
803 797 802 803 798 797 804 798 803 
804 799 798 805 799 804 805 800 799 
806 800 805 806 35 800 36 35 806 
807 18 19 807 801 18 808 801 807 
808 802 801 809 802 808 809 803 802 
810 803 809 810 804 803 811 804 810 
811 805 804 812 805 811 812 806 805 
813 806 812 813 36 806 37 36 813 
814 19 20 814 807 19 815 807 814 
815 808 807 816 808 815 816 809 808 
817 809 816 817 810 809 818 810 817 
818 811 810 819 811 818 819 812 811 
820 812 819 820 813 812 821 813 820 
821 37 813 38 37 821 66 20 1 
66 814 20 67 814 66 67 815 814 
68 815 67 68 816 815 69 816 68 
69 817 816 70 817 69 70 818 817 
71 818 70 71 819 818 72 819 71 
72 820 819 73 820 72 73 821 820 
74 821 73 74 38 821 6 38 74 
228 6 74 822 74 73 822 228 74 
229 228 822 823 73 72 823 822 73 
824 822 823 824 229 822 230 229 824 
825 72 71 825 823 72 826 823 825 
826 824 823 827 824 826 827 230 824 
231 230 827 828 71 70 828 825 71 
829 825 828 829 826 825 830 826 829 
830 827 826 831 827 830 831 231 827 
232 231 831 832 70 69 832 828 70 
833 828 832 833 829 828 834 829 833 
834 830 829 835 830 834 835 831 830 
836 831 835 836 232 831 233 232 836 
837 69 68 837 832 69 838 832 837 
838 833 832 839 833 838 839 834 833 
840 834 839 840 835 834 841 835 840 
841 836 835 842 836 841 842 233 836 
234 233 842 843 68 67 843 837 68 
844 837 843 844 838 837 845 838 844 
845 839 838 846 839 845 846 840 839 
847 840 846 847 841 840 848 841 847 
848 842 841 849 842 848 849 234 842 
235 234 849 850 67 66 850 843 67 
851 843 850 851 844 843 852 844 851 
852 845 844 853 845 852 853 846 845 
854 846 853 854 847 846 855 847 854 
855 848 847 856 848 855 856 849 848 
857 849 856 857 235 849 236 235 857 
84 66 1 84 850 66 85 850 84 
85 851 850 86 851 85 86 852 851 
87 852 86 87 853 852 88 853 87 
88 854 853 89 854 88 89 855 854 
90 855 89 90 856 855 91 856 90 
91 857 856 92 857 91 92 236 857 
10 236 92 273 9 47 858 47 46 
858 273 47 274 273 858 859 46 45 
859 858 46 860 858 859 860 274 858 
275 274 860 861 45 44 861 859 45 
862 859 861 862 860 859 863 860 862 
863 275 860 276 275 863 864 44 43 
864 861 44 865 861 864 865 862 861 
866 862 865 866 863 862 867 863 866 
867 276 863 277 276 867 868 43 42 
868 864 43 869 864 868 869 865 864 
870 865 869 870 866 865 871 866 870 
871 867 866 872 867 871 872 277 867 
278 277 872 873 42 41 873 868 42 
874 868 873 874 869 868 875 869 874 
875 870 869 876 870 875 876 871 870 
877 871 876 877 872 871 878 872 877 
878 278 872 279 278 878 879 41 40 
879 873 41 880 873 879 880 874 873 
881 874 880 881 875 874 882 875 881 
882 876 875 883 876 882 883 877 876 
884 877 883 884 878 877 885 878 884 
885 279 878 280 279 885 886 40 39 
886 879 40 887 879 886 887 880 879 
888 880 887 888 881 880 889 881 888 
889 882 881 890 882 889 890 883 882 
891 883 890 891 884 883 892 884 891 
892 885 884 893 885 892 893 280 885 
281 280 893 48 39 0 48 886 39 
49 886 48 49 887 886 50 887 49 
50 888 887 51 888 50 51 889 888 
52 889 51 52 890 889 53 890 52 
53 891 890 54 891 53 54 892 891 
55 892 54 55 893 892 56 893 55 
56 281 893 11 281 56 128 9 273 
894 273 274 894 128 273 127 128 894 
895 274 275 895 894 274 896 894 895 
896 127 894 126 127 896 897 275 276 
897 895 275 898 895 897 898 896 895 
899 896 898 899 126 896 125 126 899 
900 276 277 900 897 276 901 897 900 
901 898 897 902 898 901 902 899 898 
903 899 902 903 125 899 124 125 903 
904 277 278 904 900 277 905 900 904 
905 901 900 906 901 905 906 902 901 
907 902 906 907 903 902 908 903 907 
908 124 903 123 124 908 909 278 279 
909 904 278 910 904 909 910 905 904 
911 905 910 911 906 905 912 906 911 
912 907 906 913 907 912 913 908 907 
914 908 913 914 123 908 122 123 914 
915 279 280 915 909 279 916 909 915 
916 910 909 917 910 916 917 911 910 
918 911 917 918 912 911 919 912 918 
919 913 912 920 913 919 920 914 913 
921 914 920 921 122 914 121 122 921 
922 280 281 922 915 280 923 915 922 
923 916 915 924 916 923 924 917 916 
925 917 924 925 918 917 926 918 925 
926 919 918 927 919 926 927 920 919 
928 920 927 928 921 920 929 921 928 
929 121 921 120 121 929 137 281 11 
137 922 281 136 922 137 136 923 922 
135 923 136 135 924 923 134 924 135 
134 925 924 133 925 134 133 926 925 
132 926 133 132 927 926 131 927 132 
131 928 927 130 928 131 130 929 928 
129 929 130 129 120 929 2 120 129 
218 9 128 930 128 127 930 218 128 
217 218 930 931 127 126 931 930 127 
932 930 931 932 217 930 216 217 932 
933 126 125 933 931 126 934 931 933 
934 932 931 935 932 934 935 216 932 
215 216 935 936 125 124 936 933 125 
937 933 936 937 934 933 938 934 937 
938 935 934 939 935 938 939 215 935 
214 215 939 940 124 123 940 936 124 
941 936 940 941 937 936 942 937 941 
942 938 937 943 938 942 943 939 938 
944 939 943 944 214 939 213 214 944 
945 123 122 945 940 123 946 940 945 
946 941 940 947 941 946 947 942 941 
948 942 947 948 943 942 949 943 948 
949 944 943 950 944 949 950 213 944 
212 213 950 951 122 121 951 945 122 
952 945 951 952 946 945 953 946 952 
953 947 946 954 947 953 954 948 947 
955 948 954 955 949 948 956 949 955 
956 950 949 957 950 956 957 212 950 
211 212 957 958 121 120 958 951 121 
959 951 958 959 952 951 960 952 959 
960 953 952 961 953 960 961 954 953 
962 954 961 962 955 954 963 955 962 
963 956 955 964 956 963 964 957 956 
965 957 964 965 211 957 210 211 965 
102 120 2 102 958 120 103 958 102 
103 959 958 104 959 103 104 960 959 
105 960 104 105 961 960 106 961 105 
106 962 961 107 962 106 107 963 962 
108 963 107 108 964 963 109 964 108 
109 965 964 110 965 109 110 210 965 
5 210 110 255 7 119 966 119 118 
966 255 119 256 255 966 967 118 117 
967 966 118 968 966 967 968 256 966 
257 256 968 969 117 116 969 967 117 
970 967 969 970 968 967 971 968 970 
971 257 968 258 257 971 972 116 115 
972 969 116 973 969 972 973 970 969 
974 970 973 974 971 970 975 971 974 
975 258 971 259 258 975 976 115 114 
976 972 115 977 972 976 977 973 972 
978 973 977 978 974 973 979 974 978 
979 975 974 980 975 979 980 259 975 
260 259 980 981 114 113 981 976 114 
982 976 981 982 977 976 983 977 982 
983 978 977 984 978 983 984 979 978 
985 979 984 985 980 979 986 980 985 
986 260 980 261 260 986 987 113 112 
987 981 113 988 981 987 988 982 981 
989 982 988 989 983 982 990 983 989 
990 984 983 991 984 990 991 985 984 
992 985 991 992 986 985 993 986 992 
993 261 986 262 261 993 994 112 111 
994 987 112 995 987 994 995 988 987 
996 988 995 996 989 988 997 989 996 
997 990 989 998 990 997 998 991 990 
999 991 998 999 992 991 1000 992 999 
1000 993 992 1001 993 1000 1001 262 993 
263 262 1001 129 111 2 129 994 111 
130 994 129 130 995 994 131 995 130 
131 996 995 132 996 131 132 997 996 
133 997 132 133 998 997 134 998 133 
134 999 998 135 999 134 135 1000 999 
136 1000 135 136 1001 1000 137 1001 136 
137 263 1001 11 263 137 
POINT_DATA 1002
FIELD FieldData 2
_paraTheta 1 1002 float
2.58802 2.58802 0.553574 0.553574 2.12437 1.01722 2.12437 1.01722 1.5708 
1.5708 1.5708 1.5708 2.68241 2.78649 2.89924 3.01861 3.14159 3.01861 
2.89924 2.78649 2.68241 2.61035 2.61791 2.60515 2.56958 2.51327 2.44184 
2.36202 2.27983 2.1997 2.61035 2.61791 2.60515 2.56958 2.51327 2.44184 
2.36202 2.27983 2.1997 2.50947 2.41899 2.31794 2.20864 2.0944 1.97902 
1.86631 1.75944 1.66056 2.50947 2.41899 2.31794 2.20864 2.0944 1.97902 
1.86631 1.75944 1.66056 2.61035 2.61791 2.60515 2.56958 2.51327 2.44184 
2.36202 2.27983 2.1997 2.61035 2.61791 2.60515 2.56958 2.51327 2.44184 
2.36202 2.27983 2.1997 2.50947 2.41899 2.31794 2.20864 2.0944 1.97902 
1.86631 1.75944 1.66056 2.50947 2.41899 2.31794 2.20864 2.0944 1.97902 
1.86631 1.75944 1.66056 0.459179 0.355101 0.242354 0.122983 0 0.122983 
0.242354 0.355101 0.459179 0.531246 0.523681 0.536438 0.57201 0.628319 0.699757 
0.779574 0.86176 0.941896 0.531246 0.523681 0.536438 0.57201 0.628319 0.699757 
0.779574 0.86176 0.941896 0.632123 0.7226 0.823657 0.932948 1.0472 1.16257 
1.27528 1.38216 1.48103 0.632123 0.7226 0.823657 0.932948 1.0472 1.16257 
1.27528 1.38216 1.48103 0.531246 0.523681 0.536438 0.57201 0.628319 0.699757 
0.779574 0.86176 0.941896 0.531246 0.523681 0.536438 0.57201 0.628319 0.699757 
0.779574 0.86176 0.941896 0.632123 0.7226 0.823657 0.932948 1.0472 1.16257 
1.27528 1.38216 1.48103 0.632123 0.7226 0.823657 0.932948 1.0472 1.16257 
1.27528 1.38216 1.48103 2.02998 1.9259 1.81315 1.69378 1.5708 1.44781 
1.32844 1.2157 1.11162 2.0928 2.05283 2.00422 1.94767 1.88496 1.81867 
1.75177 1.68695 1.62623 2.0928 2.05283 2.00422 1.94767 1.88496 1.81867 
1.75177 1.68695 1.62623 1.0488 1.08876 1.13737 1.19392 1.25664 1.32292 
1.38982 1.45464 1.51537 1.0488 1.08876 1.13737 1.19392 1.25664 1.32292 
1.38982 1.45464 1.51537 2.02998 1.9259 1.81315 1.69378 1.5708 1.44781 
1.32844 1.2157 1.11162 2.0928 2.05283 2.00422 1.94767 1.88496 1.81867 
1.75177 1.68695 1.62623 2.0928 2.05283 2.00422 1.94767 1.88496 1.81867 
1.75177 1.68695 1.62623 1.0488 1.08876 1.13737 1.19392 1.25664 1.32292 
1.38982 1.45464 1.51537 1.0488 1.08876 1.13737 1.19392 1.25664 1.32292 
1.38982 1.45464 1.51537 1.5708 1.5708 1.5708 1.5708 1.5708 1.5708 
1.5708 1.5708 1.5708 1.5708 1.5708 1.5708 1.5708 1.5708 1.5708 
1.5708 1.5708 1.5708 2.70908 2.71362 2.81592 2.68886 2.81002 2.92597 
2.6349 2.76254 2.89233 3.01997 2.55881 2.68262 2.80854 2.92834 3.01997 
2.47007 2.58462 2.70048 2.80854 2.89233 2.92597 2.37702 2.48017 2.58462 
2.68262 2.76254 2.81002 2.81592 2.28567 2.37702 2.47007 2.55881 2.6349 
2.68886 2.71362 2.70908 2.52097 2.4195 2.51718 2.30791 2.40503 2.49426 
2.18928 2.28408 2.3734 2.45144 2.06758 2.15805 2.24572 2.32523 2.39165 
1.94707 2.03138 2.11543 2.19453 2.26401 2.32035 1.83164 1.90847 1.98711 
2.06376 2.13422 2.1949 2.24359 1.72413 1.79288 1.86489 1.93728 2.00658 
2.06938 2.12312 2.16654 1.5708 1.50988 1.63171 1.44492 1.5708 1.69667 
1.37826 1.5059 1.63569 1.76333 1.31281 1.43962 1.5708 1.70197 1.82878 
1.25155 1.37501 1.50478 1.63681 1.76659 1.89004 1.19686 1.31493 1.44074 
1.5708 1.70086 1.82666 1.94473 1.15011 1.26149 1.38136 1.50697 1.63462 
1.76024 1.88011 1.99148 1.99148 1.88011 1.94473 1.76024 1.82666 1.89004 
1.63462 1.70086 1.76659 1.82878 1.50697 1.5708 1.63681 1.70197 1.76333 
1.38136 1.44074 1.50478 1.5708 1.63569 1.69667 1.26149 1.31493 1.37501 
1.43962 1.5059 1.5708 1.63171 1.15011 1.19686 1.25155 1.31281 1.37826 
1.44492 1.50988 1.5708 2.16654 2.12312 2.24359 2.06938 2.1949 2.32035 
2.00658 2.13422 2.26401 2.39165 1.93728 2.06376 2.19453 2.32523 2.45144 
1.86489 1.98711 2.11543 2.24572 2.3734 2.49426 1.79288 1.90847 2.03138 
2.15805 2.28408 2.40503 2.51718 1.72413 1.83164 1.94707 2.06758 2.18928 
2.30791 2.4195 2.52097 1.66533 1.66946 1.76911 1.67254 1.777 1.88041 
1.67418 1.78222 1.89102 1.99634 1.67418 1.78405 1.89674 2.00785 2.11299 
1.67254 1.78222 1.89674 2.01191 2.12307 2.22608 1.66946 1.777 1.89102 
2.00785 2.12307 2.23222 2.33166 1.66533 1.76911 1.88041 1.99634 2.11299 
2.22608 2.33166 2.42672 1.47626 1.37249 1.47213 1.26118 1.36459 1.46906 
1.14526 1.25058 1.35938 1.46741 1.0286 1.13374 1.24485 1.35755 1.46741 
0.915514 1.01852 1.12969 1.24485 1.35938 1.46906 0.809937 0.909371 1.01852 
1.13374 1.25058 1.36459 1.47213 0.714871 0.809937 0.915514 1.0286 1.14526 
1.26118 1.37249 1.47626 0.975055 0.898002 1.01847 0.821245 0.946693 1.07221 
0.749941 0.877585 1.00737 1.13501 0.690152 0.816367 0.94706 1.07784 1.20431 
0.647337 0.768195 0.895868 1.02616 1.15448 1.2767 0.624416 0.736561 0.857515 
0.983547 1.11021 1.23313 1.34871 0.620619 0.722093 0.833684 0.952313 1.07402 
1.19452 1.30996 1.41746 0.855925 0.764569 0.764569 0.671524 0.661425 0.671524 
0.582786 0.556971 0.556971 0.582786 0.506696 0.458968 0.441109 0.458968 0.506696 
0.45273 0.379052 0.333054 0.333054 0.379052 0.45273 0.427969 0.331576 0.249267 
0.21325 0.249267 0.331576 0.427969 0.432512 0.325669 0.215619 0.121622 0.121622 
0.215619 0.325669 0.432512 0.432512 0.427969 0.325669 0.45273 0.331576 0.215619 
0.506696 0.379052 0.249267 0.121622 0.582786 0.458968 0.333054 0.21325 0.121622 
0.671524 0.556971 0.441109 0.333054 0.249267 0.215619 0.764569 0.661425 0.556971 
0.458968 0.379052 0.331576 0.325669 0.855925 0.764569 0.671524 0.582786 0.506696 
0.45273 0.427969 0.432512 0.975055 1.01847 0.898002 1.07221 0.946693 0.821245 
1.13501 1.00737 0.877585 0.749941 1.20431 1.07784 0.94706 0.816367 0.690152 
1.2767 1.15448 1.02616 0.895868 0.768195 0.647337 1.34871 1.23313 1.11021 
0.983547 0.857515 0.736561 0.624416 1.41746 1.30996 1.19452 1.07402 0.952313 
0.833684 0.722093 0.620619 1.15011 1.26149 1.19686 1.38136 1.31493 1.25155 
1.50697 1.44074 1.37501 1.31281 1.63462 1.5708 1.50478 1.43962 1.37826 
1.76024 1.70086 1.63681 1.5708 1.5059 1.44492 1.88011 1.82666 1.76659 
1.70197 1.63569 1.5708 1.50988 1.99148 1.94473 1.89004 1.82878 1.76333 
1.69667 1.63171 1.5708 1.15011 1.19686 1.26149 1.25155 1.31493 1.38136 
1.31281 1.37501 1.44074 1.50697 1.37826 1.43962 1.50478 1.5708 1.63462 
1.44492 1.5059 1.5708 1.63681 1.70086 1.76024 1.50988 1.5708 1.63569 
1.70197 1.76659 1.82666 1.88011 1.5708 1.63171 1.69667 1.76333 1.82878 
1.89004 1.94473 1.99148 1.72413 1.83164 1.79288 1.94707 1.90847 1.86489 
2.06758 2.03138 1.98711 1.93728 2.18928 2.15805 2.11543 2.06376 2.00658 
2.30791 2.28408 2.24572 2.19453 2.13422 2.06938 2.4195 2.40503 2.3734 
2.32523 2.26401 2.1949 2.12312 2.52097 2.51718 2.49426 2.45144 2.39165 
2.32035 2.24359 2.16654 2.70908 2.81592 2.71362 2.92597 2.81002 2.68886 
3.01997 2.89233 2.76254 2.6349 3.01997 2.92834 2.80854 2.68262 2.55881 
2.92597 2.89233 2.80854 2.70048 2.58462 2.47007 2.81592 2.81002 2.76254 
2.68262 2.58462 2.48017 2.37702 2.70908 2.71362 2.68886 2.6349 2.55881 
2.47007 2.37702 2.28567 2.16654 2.24359 2.12312 2.32035 2.1949 2.06938 
2.39165 2.26401 2.13422 2.00658 2.45144 2.32523 2.19453 2.06376 1.93728 
2.49426 2.3734 2.24572 2.11543 1.98711 1.86489 2.51718 2.40503 2.28408 
2.15805 2.03138 1.90847 1.79288 2.52097 2.4195 2.30791 2.18928 2.06758 
1.94707 1.83164 1.72413 1.66533 1.76911 1.66946 1.88041 1.777 1.67254 
1.99634 1.89102 1.78222 1.67418 2.11299 2.00785 1.89674 1.78405 1.67418 
2.22608 2.12307 2.01191 1.89674 1.78222 1.67254 2.33166 2.23222 2.12307 
2.00785 1.89102 1.777 1.66946 2.42672 2.33166 2.22608 2.11299 1.99634 
1.88041 1.76911 1.66533 1.47626 1.47213 1.37249 1.46906 1.36459 1.26118 
1.46741 1.35938 1.25058 1.14526 1.46741 1.35755 1.24485 1.13374 1.0286 
1.46906 1.35938 1.24485 1.12969 1.01852 0.915514 1.47213 1.36459 1.25058 
1.13374 1.01852 0.909371 0.809937 1.47626 1.37249 1.26118 1.14526 1.0286 
0.915514 0.809937 0.714871 1.41746 1.30996 1.34871 1.19452 1.23313 1.2767 
1.07402 1.11021 1.15448 1.20431 0.952313 0.983547 1.02616 1.07784 1.13501 
0.833684 0.857515 0.895868 0.94706 1.00737 1.07221 0.722093 0.736561 0.768195 
0.816367 0.877585 0.946693 1.01847 0.620619 0.624416 0.647337 0.690152 0.749941 
0.821245 0.898002 0.975055 0.975055 0.898002 1.01847 0.821245 0.946693 1.07221 
0.749941 0.877585 1.00737 1.13501 0.690152 0.816367 0.94706 1.07784 1.20431 
0.647337 0.768195 0.895868 1.02616 1.15448 1.2767 0.624416 0.736561 0.857515 
0.983547 1.11021 1.23313 1.34871 0.620619 0.722093 0.833684 0.952313 1.07402 
1.19452 1.30996 1.41746 
_paraPhi 1 1002 float
6.28319 3.14159 6.28319 3.14159 4.71239 4.71239 1.5708 1.5708 3.69517 
5.72961 2.58802 0.553574 6.28319 6.28319 6.28319 6.28319 3.14159 3.14159 
3.14159 3.14159 3.14159 6.1053 5.8988 5.67687 5.45995 5.26596 5.10322 
4.97131 4.86569 4.78095 0.177881 0.384387 0.606312 0.823235 1.01722 1.17997 
1.31187 1.4175 1.50223 6.18928 6.10703 6.03531 5.97283 5.91832 5.87061 
5.82869 5.79168 5.75886 0.0939024 0.176153 0.247873 0.310351 0.364864 0.412573 
0.454497 0.491504 0.524326 3.31947 3.52598 3.7479 3.96483 4.15881 4.32156 
4.45346 4.55909 4.64383 2.96371 2.75721 2.53528 2.31836 2.12437 1.96162 
1.82972 1.72409 1.63936 3.2355 3.31775 3.38947 3.45194 3.50646 3.55417 
3.59609 3.6331 3.66592 3.04769 2.96544 2.89372 2.83124 2.77673 2.72902 
2.6871 2.65009 2.61727 6.28319 6.28319 6.28319 6.28319 3.14159 3.14159 
3.14159 3.14159 3.14159 6.1053 5.8988 5.67687 5.45995 5.26596 5.10322 
4.97131 4.86569 4.78095 0.177881 0.384387 0.606312 0.823235 1.01722 1.17997 
1.31187 1.4175 1.50223 6.18928 6.10703 6.03531 5.97283 5.91832 5.87061 
5.82869 5.79168 5.75886 0.0939024 0.176153 0.247873 0.310351 0.364864 0.412573 
0.454497 0.491504 0.524326 3.31947 3.52598 3.7479 3.96483 4.15881 4.32156 
4.45346 4.55909 4.64383 2.96371 2.75721 2.53528 2.31836 2.12437 1.96162 
1.82972 1.72409 1.63936 3.2355 3.31775 3.38947 3.45194 3.50646 3.55417 
3.59609 3.6331 3.66592 3.04769 2.96544 2.89372 2.83124 2.77673 2.72902 
2.6871 2.65009 2.61727 4.71239 4.71239 4.71239 4.71239 4.71239 4.71239 
4.71239 4.71239 4.71239 4.60879 4.49914 4.3857 4.27128 4.15881 4.05096 
3.94976 3.85646 3.77161 4.81599 4.92564 5.03907 5.1535 5.26596 5.37381 
5.47502 5.56831 5.65317 4.60879 4.49914 4.3857 4.27128 4.15881 4.05096 
3.94976 3.85646 3.77161 4.81599 4.92564 5.03907 5.1535 5.26596 5.37381 
5.47502 5.56831 5.65317 1.5708 1.5708 1.5708 1.5708 1.5708 1.5708 
1.5708 1.5708 1.5708 1.6744 1.78405 1.89748 2.01191 2.12437 2.23222 
2.33343 2.42672 2.51157 1.4672 1.35755 1.24411 1.12969 1.01722 0.909371 
0.808166 0.714871 0.63002 1.6744 1.78405 1.89748 2.01191 2.12437 2.23222 
2.33343 2.42672 2.51157 1.4672 1.35755 1.24411 1.12969 1.01722 0.909371 
0.808166 0.714871 0.63002 3.60077 3.49669 3.38395 3.26458 3.14159 3.01861 
2.89924 2.78649 2.68241 5.82401 5.92808 6.04083 6.1602 6.28319 0.122983 
0.242354 0.355101 0.459179 6.05603 5.78856 5.97021 5.51259 5.60297 5.78856 
5.26596 5.26596 5.26596 5.26596 5.06749 5.0121 4.91556 4.71239 4.15881 
4.91556 4.83537 4.71239 4.50922 4.15881 3.63622 4.80045 4.71239 4.58941 
4.41268 4.15881 3.82181 3.45456 4.71239 4.62433 4.50922 4.35729 4.15881 
3.91219 3.63622 3.36875 6.01742 5.94343 5.82633 5.88092 5.76745 5.62798 
5.8278 5.71897 5.58911 5.43724 5.78235 5.67854 5.55757 5.41926 5.26596 
5.74316 5.64441 5.5315 5.40467 5.26596 5.11955 5.70914 5.61528 5.50962 
5.3926 5.26596 5.13292 4.99789 5.67937 5.59016 5.49102 5.38246 5.26596 
5.14407 5.02016 4.89798 5.56831 5.47502 5.47502 5.37381 5.37381 5.37381 
5.26596 5.26596 5.26596 5.26596 5.1535 5.1535 5.1535 5.1535 5.1535 
5.03907 5.03907 5.03907 5.03907 5.03907 5.03907 4.92564 4.92564 4.92564 
4.92564 4.92564 4.92564 4.92564 4.81599 4.81599 4.81599 4.81599 4.81599 
4.81599 4.81599 4.81599 4.60879 4.60879 4.49914 4.60879 4.49914 4.3857 
4.60879 4.49914 4.3857 4.27128 4.60879 4.49914 4.3857 4.27128 4.15881 
4.60879 4.49914 4.3857 4.27128 4.15881 4.05096 4.60879 4.49914 4.3857 
4.27128 4.15881 4.05096 3.94976 4.60879 4.49914 4.3857 4.27128 4.15881 
4.05096 3.94976 3.85646 4.5268 4.40462 4.42689 4.28071 4.29185 4.30523 
4.15881 4.15881 4.15881 4.15881 4.04232 4.03217 4.02011 4.00552 3.98753 
3.93376 3.91515 3.89328 3.86721 3.83566 3.7968 3.83461 3.8095 3.78037 
3.74624 3.70581 3.65733 3.59845 3.7454 3.71564 3.68161 3.64243 3.59698 
3.54386 3.48135 3.40735 3.56428 3.45246 3.52338 3.33203 3.40312 3.47739 
3.20576 3.27463 3.34802 3.42551 3.07742 3.14159 3.21128 3.28647 3.36688 
2.95116 3.00855 3.0719 3.14159 3.21784 3.3006 2.83072 2.88006 2.93517 
2.99672 3.06535 3.14159 3.22575 2.7189 2.7598 2.8058 2.85768 2.9163 
2.98259 3.05743 3.14159 3.56428 3.52338 3.45246 3.47739 3.40312 3.33203 
3.42551 3.34802 3.27463 3.20576 3.36688 3.28647 3.21128 3.14159 3.07742 
3.3006 3.21784 3.14159 3.0719 3.00855 2.95116 3.22575 3.14159 3.06535 
2.99672 2.93517 2.88006 2.83072 3.14159 3.05743 2.98259 2.9163 2.85768 
2.8058 2.7598 2.7189 4.5268 4.42689 4.40462 4.30523 4.29185 4.28071 
4.15881 4.15881 4.15881 4.15881 3.98753 4.00552 4.02011 4.03217 4.04232 
3.7968 3.83566 3.86721 3.89328 3.91515 3.93376 3.59845 3.65733 3.70581 
3.74624 3.78037 3.8095 3.83461 3.40735 3.48135 3.54386 3.59698 3.64243 
3.68161 3.71564 3.7454 4.71239 4.80045 4.62433 4.91556 4.71239 4.50922 
5.06749 4.83537 4.58941 4.35729 5.26596 5.0121 4.71239 4.41268 4.15881 
5.51259 5.26596 4.91556 4.50922 4.15881 3.91219 5.78856 5.60297 5.26596 
4.71239 4.15881 3.82181 3.63622 6.05603 5.97021 5.78856 5.26596 4.15881 
3.63622 3.45456 3.36875 0.227158 0.494626 0.312971 0.770593 0.680215 0.494626 
1.01722 1.01722 1.01722 1.01722 1.2157 1.27109 1.36763 1.5708 2.12437 
1.36763 1.44781 1.5708 1.77397 2.12437 2.64697 1.48273 1.5708 1.69378 
1.8705 2.12437 2.46138 2.82862 1.5708 1.65886 1.77397 1.9259 2.12437 
2.371 2.64697 2.91443 1.75639 1.87857 1.8563 2.00248 1.99133 1.97796 
2.12437 2.12437 2.12437 2.12437 2.24087 2.25101 2.26308 2.27767 2.29565 
2.34943 2.36803 2.38991 2.41597 2.44752 2.48639 2.44857 2.47368 2.50281 
2.53694 2.57738 2.62586 2.68474 2.53778 2.56754 2.60157 2.64076 2.68621 
2.73933 2.80184 2.87583 1.6744 1.6744 1.78405 1.6744 1.78405 1.89748 
1.6744 1.78405 1.89748 2.01191 1.6744 1.78405 1.89748 2.01191 2.12437 
1.6744 1.78405 1.89748 2.01191 2.12437 2.23222 1.6744 1.78405 1.89748 
2.01191 2.12437 2.23222 2.33343 1.6744 1.78405 1.89748 2.01191 2.12437 
2.23222 2.33343 2.42672 1.4672 1.35755 1.4672 1.24411 1.35755 1.4672 
1.12969 1.24411 1.35755 1.4672 1.01722 1.12969 1.24411 1.35755 1.4672 
0.909371 1.01722 1.12969 1.24411 1.35755 1.4672 0.808166 0.909371 1.01722 
1.12969 1.24411 1.35755 1.4672 0.714871 0.808166 0.909371 1.01722 1.12969 
1.24411 1.35755 1.4672 0.603812 0.57405 0.693022 0.540021 0.667908 0.792164 
0.500837 0.638778 0.773562 0.900726 0.455383 0.604649 0.751687 0.890581 1.01722 
0.402264 0.564217 0.725619 0.878514 1.01722 1.13912 0.339753 0.515737 0.694072 
0.863926 1.01722 1.15026 1.26302 0.265762 0.456853 0.655207 0.845941 1.01722 
1.16363 1.28529 1.38521 0.227158 0.312971 0.494626 0.494626 0.680215 0.770593 
1.01722 1.01722 1.01722 1.01722 2.12437 1.5708 1.36763 1.27109 1.2157 
2.64697 2.12437 1.77397 1.5708 1.44781 1.36763 2.82862 2.46138 2.12437 
1.8705 1.69378 1.5708 1.48273 2.91443 2.64697 2.371 2.12437 1.9259 
1.77397 1.65886 1.5708 1.75639 1.8563 1.87857 1.97796 1.99133 2.00248 
2.12437 2.12437 2.12437 2.12437 2.29565 2.27767 2.26308 2.25101 2.24087 
2.48639 2.44752 2.41597 2.38991 2.36803 2.34943 2.68474 2.62586 2.57738 
2.53694 2.50281 2.47368 2.44857 2.87583 2.80184 2.73933 2.68621 2.64076 
2.60157 2.56754 2.53778 5.86049 5.90139 5.97231 5.94739 6.02165 6.09275 
5.99927 6.07676 6.15015 6.21902 6.0579 6.13831 6.2135 0 0.0641696 
6.12418 6.20694 6.28319 0.069689 0.13304 0.190437 6.19903 0 0.0762451 
0.144876 0.206423 0.261531 0.310872 0 0.0841597 0.159004 0.225289 0.283913 
0.335793 0.381792 0.422692 5.86049 5.97231 5.90139 6.09275 6.02165 5.94739 
6.21902 6.15015 6.07676 5.99927 0.0641696 0 6.2135 6.13831 6.0579 
0.190437 0.13304 0.069689 6.28319 6.20694 6.12418 0.310872 0.261531 0.206423 
0.144876 0.0762451 6.28319 6.19903 0.422692 0.381792 0.335793 0.283913 0.225289 
0.159004 0.0841597 0 5.67937 5.70914 5.59016 5.74316 5.61528 5.49102 
5.78235 5.64441 5.50962 5.38246 5.8278 5.67854 5.5315 5.3926 5.26596 
5.88092 5.71897 5.55757 5.40467 5.26596 5.14407 5.94343 5.76745 5.58911 
5.41926 5.26596 5.13292 5.02016 6.01742 5.82633 5.62798 5.43724 5.26596 
5.11955 4.99789 4.89798 1.38521 1.28529 1.26302 1.16363 1.15026 1.13912 
1.01722 1.01722 1.01722 1.01722 0.845941 0.863926 0.878514 0.890581 0.900726 
0.655207 0.694072 0.725619 0.751687 0.773562 0.792164 0.456853 0.515737 0.564217 
0.604649 0.638778 0.667908 0.693022 0.265762 0.339753 0.402264 0.455383 0.500837 
0.540021 0.57405 0.603812 
