# vtk DataFile Version 5.1
vtk output
ASCII
DATASET POLYDATA
POINTS 100 float
0.134342 0.0303948 0.680154 0.134397 0.0306145 0.679851 0.13461 0.0311154 0.678784 
0.134923 0.0318674 0.676972 0.135249 0.0328239 0.674442 0.135478 0.033928 0.671225 
0.135492 0.0351178 0.667355 0.135178 0.0363338 0.662856 0.13444 0.0375237 0.657748 
0.133204 0.0386472 0.652038 0.131428 0.0396777 0.645725 0.129099 0.0406022 0.638805 
0.126232 0.0414192 0.631271 0.12286 0.0421342 0.623125 0.119024 0.0427553 0.614381 
0.114768 0.0432877 0.605073 0.110124 0.0437298 0.595254 0.105105 0.0440699 0.584997 
0.0997091 0.0442864 0.574388 0.0939125 0.0443485 0.563524 0.0876793 0.044221 0.552498 
0.0809682 0.0438688 0.541389 0.0737441 0.0432638 0.530252 0.065988 0.0423911 0.519111 
0.0577071 0.041254 0.50795 0.0489412 0.0398777 0.496721 0.0397643 0.0383098 0.485336 
0.0302819 0.036619 0.47369 0.0206236 0.0348899 0.461661 0.0109305 0.0332169 0.449133 
0.00134083 0.0316958 0.436005 -0.00802524 0.0304155 0.422208 -0.0170798 0.02945 0.407705 
-0.0257777 0.0288527 0.392503 -0.0341218 0.0286523 0.376644 -0.0421619 0.0288522 0.360198 
-0.0499876 0.0294328 0.343249 -0.0577146 0.0303561 0.325883 -0.0654662 0.0315726 0.308165 
-0.0733531 0.0330285 0.290133 -0.0814524 0.034674 0.27178 -0.0897891 0.0364691 0.253058 
-0.0983236 0.0383885 0.233876 -0.106944 0.0404234 0.214114 -0.11547 0.0425811 0.193635 
-0.123661 0.044881 0.172313 -0.131232 0.0473503 0.150046 -0.137882 0.0500169 0.126783 
-0.143314 0.0529029 0.102538 -0.147269 0.0560188 0.0773951 -0.149542 0.0593593 0.0515147 
-0.15001 0.0629006 0.0251208 -0.14864 0.0666014 -0.0015149 -0.145492 0.0704042 -0.0280968 
-0.140715 0.0742408 -0.0543327 -0.134533 0.0780363 -0.0799619 -0.127225 0.0817156 -0.10478 
-0.119099 0.0852076 -0.128657 -0.110465 0.0884492 -0.151549 -0.101611 0.0913869 -0.173494 
-0.0927784 0.0939764 -0.194608 -0.0841464 0.0961815 -0.215061 -0.075824 0.0979705 -0.235052 
-0.0678475 0.0993133 -0.254785 -0.0601875 0.100179 -0.274435 -0.0527618 0.100533 -0.29413 
-0.045452 0.10034 -0.313932 -0.0381244 0.0995635 -0.33383 -0.0306495 0.0981743 -0.353742 
-0.0229201 0.0961541 -0.37353 -0.0148654 0.0935039 -0.393021 -0.00646028 0.0902509 -0.412027 
0.0022718 0.0864542 -0.430377 0.0112608 0.0822069 -0.447933 0.0203974 0.0776355 -0.464616 
0.0295443 0.0728954 -0.480406 0.0385492 0.0681615 -0.495348 0.0472584 0.0636164 -0.509537 
0.0555304 0.059436 -0.523097 0.0632459 0.0557741 -0.536162 0.0703159 0.0527489 -0.548847 
0.0766853 0.050431 -0.56122 0.0823338 0.0488368 -0.573292 0.0872728 0.0479266 -0.584997 
0.0915407 0.0476085 -0.596203 0.0951952 0.047748 -0.606718 0.0983066 0.0481823 -0.616312 
0.10095 0.0487376 -0.624748 0.103199 0.0492475 -0.631817 0.105119 0.0495706 -0.637362 
0.106768 0.0496052 -0.641312 0.108189 0.0492994 -0.643698 0.109415 0.0486543 -0.644654 
0.110466 0.0477222 -0.644416 0.111354 0.0465979 -0.643299 0.112083 0.0454048 -0.641667 
0.112653 0.0442786 -0.639893 0.11306 0.0433483 -0.638326 0.113302 0.0427198 -0.637244 
0.113377 0.0424617 -0.636831 
LINES 2 100
OFFSETS vtktypeint64
0 100 
CONNECTIVITY vtktypeint64
0 1 2 3 4 5 6 7 8 
9 10 11 12 13 14 15 16 17 
18 19 20 21 22 23 24 25 26 
27 28 29 30 31 32 33 34 35 
36 37 38 39 40 41 42 43 44 
45 46 47 48 49 50 51 52 53 
54 55 56 57 58 59 60 61 62 
63 64 65 66 67 68 69 70 71 
72 73 74 75 76 77 78 79 80 
81 82 83 84 85 86 87 88 89 
90 91 92 93 94 95 96 97 98 
99 
POINT_DATA 100
FIELD FieldData 3
_theta 1 100 double
0 0.031733259127 0.063466518254 0.095199777382 0.12693303651 0.15866629564 0.19039955476 0.22213281389 0.25386607302 
0.28559933214 0.31733259127 0.3490658504 0.38079910953 0.41253236865 0.44426562778 0.47599888691 0.50773214603 0.53946540516 
0.57119866429 0.60293192342 0.63466518254 0.66639844167 0.6981317008 0.72986495992 0.76159821905 0.79333147818 0.82506473731 
0.85679799643 0.88853125556 0.92026451469 0.95199777382 0.98373103294 1.0154642921 1.0471975512 1.0789308103 1.1106640695 
1.1423973286 1.1741305877 1.2058638468 1.237597106 1.2693303651 1.3010636242 1.3327968833 1.3645301425 1.3962634016 
1.4279966607 1.4597299198 1.491463179 1.5231964381 1.5549296972 1.5866629564 1.6183962155 1.6501294746 1.6818627337 
1.7135959929 1.745329252 1.7770625111 1.8087957702 1.8405290294 1.8722622885 1.9039955476 1.9357288068 1.9674620659 
1.999195325 2.0309285841 2.0626618433 2.0943951024 2.1261283615 2.1578616206 2.1895948798 2.2213281389 2.253061398 
2.2847946572 2.3165279163 2.3482611754 2.3799944345 2.4117276937 2.4434609528 2.4751942119 2.506927471 2.5386607302 
2.5703939893 2.6021272484 2.6338605076 2.6655937667 2.6973270258 2.7290602849 2.7607935441 2.7925268032 2.8242600623 
2.8559933214 2.8877265806 2.9194598397 2.9511930988 2.982926358 3.0146596171 3.0463928762 3.0781261353 3.1098593945 
3.1415926536 
_radius 1 100 double
1.242357555e-15 0.01563437406 0.031232657027 0.046750856145 0.06214056134 0.07734700722 0.09230756874 0.10695135977 0.12120055151 
0.13497369104 0.14819080186 0.16077956474 0.17268156022 0.18385748134 0.19429038425 0.20398637173 0.21297252698 0.22129237218 
0.22899955143 0.23615074063 0.24279886765 0.24898753887 0.25474716884 0.26009286564 0.26502383629 0.26952405876 0.27356414733 
0.27710447465 0.28009948779 0.28250277777 0.28427208513 0.28537331716 0.28578289562 0.285488234 0.28448667712 0.2827836725 
0.28039118754 0.27732738376 0.27361828334 0.269301639 0.26443253992 0.25908961785 0.25338024231 0.24744297154 0.24144585236 
0.23557992858 0.23004832925 0.2250521878 0.22077508358 0.21736780477 0.21493537943 0.21352842018 0.21314010139 0.21370817073 
0.21511946709 0.21721442008 0.21979149943 0.22261465675 0.22542744164 0.22797452486 0.230027098 0.23140648431 0.23200134407 
0.23177639486 0.23077257108 0.22909942296 0.2269209087 0.2244362074 0.22185778452 0.21938926961 0.21720546823 0.21543611956 
0.21415422287 0.21336929192 0.21302583185 0.21300732379 0.21314562302 0.21323490042 0.21304851948 0.21235697237 0.21094520922 
0.20862802224 0.20526224982 0.20075448624 0.19506311332 0.18819413102 0.18019136296 0.17112275607 0.16106531575 0.15009154306 
0.13826002327 0.12561204455 0.11217484383 0.097970498184 0.08302805532 0.067395772044 0.051150590588 0.034402961498 0.017296161928 
8.5693900473e-16 
_area 1 100 double
0 0.00064831665866 0.0025814375217 0.0057628635655 0.010129170789 0.015588502967 0.022022082114 0.029290125645 0.03724180215 
0.045726999197 0.054606721956 0.063759588922 0.073083918909 0.082497045617 0.091934237181 0.10134839189 0.11070949886 0.12000158823 
0.1292159573 0.13834232569 0.14736174646 0.15624422822 0.1649503152 0.17343208335 0.18162829635 0.1894524908 0.19678032067 
0.20344809581 0.20927087663 0.21407583543 0.21773577347 0.22018763645 0.22142892866 0.22149458767 0.22042514892 0.2182417684 
0.21494076597 0.21050918486 0.20495200009 0.19831919738 0.1907247868 0.18235416356 0.17345930006 0.1643434518 0.155337499 
0.14676818394 0.13891900494 0.13199483009 0.12611383222 0.1213286841 0.11763790933 0.11497459607 0.11322617073 0.11237725488 
0.11285493559 0.11430979201 0.11637032241 0.11874763215 0.12109535218 0.12306461896 0.12433707022 0.12470362823 0.12400486262 
0.1222352019 0.11950651324 0.11596533405 0.11186686153 0.10753858896 0.10333643573 0.099612843344 0.09669201874 0.094855421635 
0.09434465147 0.095162083029 0.096948715628 0.099228460897 0.10158627394 0.10366845314 0.10537223839 0.10688401171 0.10755158491 
0.10694414401 0.1049035973 0.10137972525 0.096419763255 0.090148931277 0.082749606216 0.074446516262 0.065499215957 0.056197429263 
0.046852914365 0.037783941321 0.029292995387 0.021641989947 0.015030979681 0.00958665172 0.0053656771401 0.0023735189073 0.00059146704895 
3.8724880655e-17 
